<svg width="65" height="65" viewBox="0 0 65 65" fill="none" xmlns="http://www.w3.org/2000/svg">
<g clip-path="url(#clip0_10_221)">
<path d="M49.7656 0H15.2344C6.82066 0 0 6.82066 0 15.2344V49.7656C0 58.1793 6.82066 65 15.2344 65H49.7656C58.1793 65 65 58.1793 65 49.7656V15.2344C65 6.82066 58.1793 0 49.7656 0Z" fill="#242938"/>
<path d="M57.8906 46.4488C57.1515 46.7289 56.3353 46.7284 55.5965 46.4474C54.8577 46.1665 54.2475 45.6246 53.8812 44.9241C51.58 41.4794 49.0389 38.19 46.5966 34.8301L45.5376 33.4184C42.6293 37.3148 39.7211 41.0559 37.067 44.9383C36.7213 45.6077 36.1441 46.1286 35.4428 46.4039C34.7416 46.6792 33.9641 46.6902 33.2554 46.4349L44.1683 31.7949L34.0176 18.5664C34.7483 18.3026 35.5476 18.2989 36.2807 18.5561C37.0137 18.8133 37.6356 19.3156 38.0413 19.9781C40.3988 23.4231 43.0107 26.7124 45.6082 30.1996C48.2201 26.7406 50.8036 23.4371 53.2177 20.0205C53.5653 19.3619 54.1428 18.8541 54.8405 18.5938C55.5382 18.3335 56.3072 18.3388 57.0012 18.6088L53.0623 23.8324C51.2977 26.1617 49.5612 28.5053 47.726 30.7782C47.5781 30.9107 47.4598 31.0728 47.3788 31.254C47.2978 31.4352 47.2559 31.6315 47.2559 31.8301C47.2559 32.0286 47.2978 32.2249 47.3788 32.4061C47.4598 32.5873 47.5781 32.7494 47.726 32.8819C51.1002 37.3572 54.4459 41.8465 57.8906 46.4488ZM7.10938 31.6113C7.40594 30.1996 7.58926 28.6607 7.99881 27.2208C10.4411 18.5384 20.394 14.9241 27.2411 20.3031C31.2505 23.4515 32.2529 27.9127 32.0554 32.9385H9.46715C9.1 41.9174 15.5799 47.3385 23.8669 44.5714C25.2113 44.0906 26.4147 43.2826 27.3685 42.2202C28.3224 41.1579 28.9967 39.8747 29.3305 38.4866C29.7682 37.0749 30.4741 36.8349 31.8152 37.2442C31.5943 38.9629 30.9866 40.6091 30.0379 42.0592C29.0892 43.5092 27.8241 44.7253 26.3377 45.616C23.8819 46.9592 21.0641 47.4914 18.2876 47.1364C15.511 46.7815 12.9178 45.5575 10.8789 43.6396C8.86171 41.3715 7.64202 38.5057 7.40594 35.4796C7.40594 34.9997 7.22236 34.5196 7.12359 34.0679C7.11425 33.249 7.10951 32.4302 7.10938 31.6113ZM9.49533 31.0042H29.9236C29.7964 24.4961 25.6882 19.8796 20.2107 19.8374C14.1119 19.7526 9.74949 24.2701 9.48111 30.976L9.49533 31.0042Z" fill="white"/>
</g>
<defs>
<clipPath id="clip0_10_221">
<rect width="65" height="65" fill="white"/>
</clipPath>
</defs>
</svg>
