<svg width="65" height="65" viewBox="0 0 65 65" fill="none" xmlns="http://www.w3.org/2000/svg">
<g clip-path="url(#clip0_10_225)">
<path d="M49.7656 0H15.2344C6.82066 0 0 6.82066 0 15.2344V49.7656C0 58.1793 6.82066 65 15.2344 65H49.7656C58.1793 65 65 58.1793 65 49.7656V15.2344C65 6.82066 58.1793 0 49.7656 0Z" fill="#242938"/>
<mask id="mask0_10_225" style="mask-type:luminance" maskUnits="userSpaceOnUse" x="9" y="9" width="47" height="47">
<path d="M9.64844 9.64844H55.3516V55.3516H9.64844V9.64844Z" fill="white"/>
</mask>
<g mask="url(#mask0_10_225)">
<path fill-rule="evenodd" clip-rule="evenodd" d="M51.7464 45.2487C49.2606 45.1796 47.3322 45.4343 45.7161 46.1143C45.2507 46.3011 44.5039 46.3011 44.4425 46.8869C44.6913 47.1327 44.7213 47.5349 44.9394 47.8756C45.3119 48.4939 45.9654 49.3267 46.5555 49.7588L48.5446 51.1802C49.7567 51.9208 51.1243 52.3538 52.3052 53.0952C52.9892 53.5278 53.6727 54.0839 54.3568 54.5478C54.7051 54.7948 54.9161 55.1972 55.3516 55.3509V55.2574C55.1342 54.9804 55.0715 54.579 54.8549 54.2687L53.9213 53.3734C53.0207 52.1689 51.901 51.1177 50.6888 50.2537C49.694 49.574 47.5191 48.6475 47.1149 47.5052L47.0537 47.4358C47.7364 47.3668 48.5446 47.1263 49.1979 46.941C50.2554 46.664 51.2182 46.7249 52.3052 46.4471L53.7982 46.0145V45.7375C53.2386 45.1817 52.8346 44.44 52.2445 43.9154C50.6596 42.5563 48.9178 41.2276 47.1149 40.1157C46.1515 39.4982 44.9079 39.0958 43.8824 38.5717C43.5084 38.3861 42.8876 38.2934 42.6702 37.9847C42.1093 37.3062 41.7993 36.4095 41.3954 35.6058L38.8469 30.2312C38.2875 29.0264 37.9448 27.8216 37.262 26.7097C34.06 21.4582 30.5782 18.277 25.2319 15.1565C24.0825 14.5078 22.715 14.2287 21.2608 13.8895L18.93 13.7651C18.4318 13.549 17.9349 12.9617 17.4997 12.6834C15.728 11.5713 11.1587 9.16226 9.85208 12.3374C9.01292 14.345 11.096 16.3217 11.8031 17.3416C12.3325 18.052 13.0152 18.8549 13.3892 19.6582C13.5982 20.1831 13.668 20.7396 13.8861 21.2957C14.3828 22.6546 14.8495 24.1689 15.5023 25.4359C15.8506 26.0846 16.2165 26.7651 16.6517 27.3516C16.9005 27.6977 17.336 27.846 17.4286 28.4018C16.9932 29.02 16.9632 29.9458 16.7144 30.7192C15.5949 34.2099 16.0304 38.5344 17.6153 41.1044C18.1134 41.8763 19.2872 43.576 20.88 42.9267C22.2788 42.3707 21.9667 40.6101 22.3707 39.0653C22.4646 38.6951 22.4022 38.4478 22.588 38.2V38.2693L23.8629 40.833C24.8265 42.3465 26.5055 43.9223 27.9035 44.9732C28.649 45.5293 29.2399 46.4875 30.1719 46.8267V46.7333H30.1108C29.9239 46.4563 29.6438 46.3316 29.3952 46.1155C28.8359 45.5597 28.2143 44.8798 27.7789 44.2623C26.4741 42.5327 25.3246 40.6169 24.2983 38.6403C23.8004 37.6828 23.365 36.6324 22.9623 35.6749C22.7741 35.3039 22.7741 34.7471 22.4641 34.563C21.9972 35.2415 21.3147 35.83 20.9711 36.6636C20.3803 37.9915 20.3191 39.629 20.1018 41.3281C19.9763 41.3591 20.0319 41.3281 19.9763 41.3972C18.9828 41.1509 18.64 40.1302 18.2675 39.2661C17.3352 37.0729 17.1791 33.5515 17.9872 31.0183C18.2046 30.3695 19.1382 28.3307 18.7655 27.7129C18.5776 27.1259 17.9573 26.7867 17.6145 26.3228C17.2105 25.7357 16.7766 24.9948 16.4966 24.3461C15.7511 22.6152 15.3783 20.7008 14.5694 18.9709C14.1954 18.1676 13.5434 17.3332 13.0145 16.5926C12.4236 15.7582 11.7724 15.171 11.3057 14.183C11.1503 13.8369 10.933 13.2872 11.1815 12.916C11.243 12.669 11.3682 12.5699 11.6157 12.5146C12.0194 12.1683 13.1706 12.6073 13.5746 12.7913C14.724 13.2552 15.6876 13.6874 16.6512 14.3354C17.0866 14.6441 17.5533 15.2314 18.1127 15.3865H18.7662C19.761 15.6023 20.8792 15.4556 21.8106 15.7326C23.4584 16.2587 24.9499 17.0301 26.2874 17.8649C30.3588 20.4288 33.7167 24.0739 35.9849 28.4302C36.3576 29.1406 36.513 29.7894 36.8558 30.5308C37.5093 32.0451 38.3175 33.5891 38.9688 35.0726C39.6223 36.5245 40.2436 38.0083 41.176 39.2128C41.6427 39.8616 43.5068 40.2008 44.3458 40.5408C44.9678 40.8178 45.9306 41.0671 46.4915 41.4063C47.5475 42.0551 48.6045 42.7965 49.5986 43.5069C50.0952 43.8766 51.6504 44.6492 51.7428 45.2654L51.7464 45.2487ZM20.0479 18.405C19.6186 18.4013 19.1906 18.4532 18.7746 18.5593V18.6287H18.8358C19.0846 19.123 19.5201 19.463 19.8306 19.8956L20.5461 21.3785L20.6075 21.3094C21.0427 21.0006 21.2608 20.5063 21.2608 19.7656C21.0742 19.5496 21.0435 19.3327 20.8881 19.1167C20.7015 18.8079 20.2975 18.6528 20.0479 18.4065V18.405Z" fill="white"/>
</g>
</g>
<defs>
<clipPath id="clip0_10_225">
<rect width="65" height="65" fill="white"/>
</clipPath>
</defs>
</svg>
