<svg width="65" height="65" viewBox="0 0 65 65" fill="none" xmlns="http://www.w3.org/2000/svg">
<g clip-path="url(#clip0_10_216)">
<path d="M49.7656 0H15.2344C6.82066 0 0 6.82066 0 15.2344V49.7656C0 58.1793 6.82066 65 15.2344 65H49.7656C58.1793 65 65 58.1793 65 49.7656V15.2344C65 6.82066 58.1793 0 49.7656 0Z" fill="#242938"/>
<path d="M30.4378 7.90058C31.6867 7.18583 33.3133 7.18253 34.561 7.90058C40.838 11.4476 47.1171 14.9889 53.3932 18.538C54.5738 19.203 55.3632 20.5167 55.3513 21.8769V43.2164C55.3602 44.6329 54.4926 45.9781 53.2472 46.6279C46.9907 50.1554 40.7372 53.687 34.4817 57.2145C33.2074 57.9432 31.5481 57.8871 30.3131 57.0985C28.4375 56.0112 26.5586 54.9291 24.6827 53.8429C24.2993 53.6144 23.8672 53.4326 23.5965 53.0609C23.836 52.7384 24.2638 52.6983 24.6114 52.5574C25.3942 52.3083 26.1135 51.9086 26.8326 51.5209C27.0146 51.3965 27.2365 51.4442 27.411 51.5554C29.0149 52.4751 30.6048 53.4216 32.2141 54.3324C32.5574 54.5307 32.905 54.2674 33.1985 54.1039C39.3379 50.6338 45.485 47.1771 51.6237 43.7059C51.8512 43.5965 51.9769 43.355 51.9584 43.1059C51.9627 36.0664 51.9594 29.0258 51.9606 21.986C51.9865 21.7037 51.823 21.4437 51.5673 21.3279C45.3327 17.8166 39.1008 14.3003 32.8671 10.7883C32.7591 10.7141 32.6312 10.6742 32.5002 10.674C32.3692 10.6738 32.2411 10.7132 32.1328 10.787C25.8989 14.3003 19.6686 17.8202 13.4347 21.331C13.18 21.447 13.0091 21.7027 13.0394 21.986C13.0406 29.0258 13.0394 36.0664 13.0394 43.107C13.0285 43.2286 13.0551 43.3506 13.1158 43.4566C13.1765 43.5626 13.2682 43.6474 13.3786 43.6996C15.0419 44.6428 16.7075 45.5795 18.3721 46.5197C19.3101 47.0242 20.4613 47.3243 21.4947 46.9376C22.4062 46.6106 23.0453 45.68 23.028 44.7122C23.0367 37.7137 23.0237 30.7143 23.0344 23.7167C23.0115 23.4061 23.3063 23.1494 23.6085 23.1789C24.4077 23.1733 25.2081 23.168 26.0074 23.1809C26.341 23.1733 26.5705 23.5079 26.5294 23.8208C26.5261 30.8636 26.538 37.9065 26.5241 44.9491C26.5261 46.8262 25.755 48.8686 24.0188 49.787C21.8801 50.8948 19.2364 50.6599 17.1234 49.5976C15.2943 48.6845 13.5484 47.6069 11.7518 46.6289C10.5031 45.9827 9.6398 44.6322 9.64869 43.2167V21.8769C9.63548 20.4885 10.4566 19.1509 11.6736 18.4956C17.9291 14.9655 24.1835 11.4324 30.4378 7.90058Z" fill="#81CD39"/>
<path d="M35.8952 22.6828C38.6235 22.5071 41.5441 22.5787 43.9992 23.9228C45.9002 24.9527 46.9539 27.1144 46.9874 29.2262C46.9343 29.5108 46.6365 29.668 46.3645 29.6484C45.5731 29.6474 44.7812 29.6593 43.9898 29.6431C43.6538 29.656 43.4588 29.3465 43.4167 29.0497C43.1892 28.0392 42.638 27.0385 41.6871 26.551C40.2271 25.8203 38.5346 25.8571 36.9426 25.8723C35.7805 25.9338 34.5307 26.0346 33.5461 26.7178C32.7902 27.2356 32.5607 28.2806 32.8303 29.1223C33.0847 29.7266 33.7822 29.9216 34.3533 30.1014C37.6411 30.9614 41.1252 30.8756 44.3503 32.0072C45.6856 32.4686 46.9917 33.3656 47.4487 34.7636C48.0467 36.6375 47.7846 38.8769 46.4514 40.381C45.3703 41.6188 43.7958 42.2927 42.2254 42.6586C40.1362 43.1245 37.9681 43.1364 35.8465 42.9295C33.8515 42.702 31.7754 42.1779 30.2354 40.8188C28.9184 39.6752 28.2753 37.8933 28.339 36.1738C28.3542 35.8833 28.6434 35.6807 28.9217 35.7046C29.7187 35.6983 30.516 35.696 31.313 35.7059C31.6316 35.683 31.8675 35.9583 31.884 36.2584C32.0308 37.2209 32.3926 38.2315 33.2323 38.802C34.8522 39.8473 36.8852 39.7757 38.7403 39.8049C40.2771 39.7369 42.0024 39.7163 43.2565 38.7004C43.9182 38.121 44.1142 37.1516 43.9354 36.3178C43.7417 35.6137 43.0051 35.2857 42.3726 35.0711C39.127 34.0446 35.6037 34.417 32.3896 33.2559C31.0845 32.7948 29.8226 31.9229 29.3213 30.5823C28.6218 28.6849 28.9423 26.3377 30.4152 24.8846C31.8513 23.4386 33.9242 22.8818 35.8952 22.6828Z" fill="#81CD39"/>
</g>
<defs>
<clipPath id="clip0_10_216">
<rect width="65" height="65" fill="white"/>
</clipPath>
</defs>
</svg>
