<svg width="65" height="65" viewBox="0 0 65 65" fill="none" xmlns="http://www.w3.org/2000/svg">
<g clip-path="url(#clip0_10_245)">
<path d="M32.8047 -9.06056e-05C31.9253 0.00246867 31.0463 0.0343092 30.1691 0.0953781C26.4123 0.354363 22.1406 1.47409 19.6015 2.59839C17.5642 3.49874 15.2521 4.85307 13.3448 6.21147C8.60486 9.59553 4.76021 14.4893 2.50095 20.1154C2.03224 21.2854 1.4381 22.5402 1.11056 23.73C-0.282368 28.8061 -0.166587 34.7236 0.833804 39.3015C3.32919 50.7436 10.041 57.3421 18.7697 61.9652C26.6038 66.1151 38.5683 65.9967 47.1316 61.6859C52.2519 59.1078 56.3413 55.1793 59.5044 50.4247C62.5802 45.7975 64.9401 39.493 64.9263 32.212C64.9147 25.5089 62.2349 18.9865 59.5044 14.694C54.3989 6.66241 45.7097 -0.0168484 32.8047 -9.06056e-05ZM32.9621 1.55991C42.607 1.54874 50.1404 6.11143 54.9174 11.3566C56.2661 12.8394 57.6138 14.3101 58.531 15.8061C60.2301 18.5737 61.3168 21.844 62.1471 24.9823C65.2524 36.7214 60.5851 47.8551 54.7767 53.9001C50.4374 58.4182 45.1095 61.4742 38.093 62.7975C30.1981 64.289 22.624 62.3461 17.2377 59.3221C11.7051 56.2148 7.78525 51.7998 4.86533 46.1144C2.05001 40.632 0.739858 31.9114 2.77974 24.7024C4.61294 18.2258 7.74208 12.8481 12.6511 8.99327C16.055 6.32116 19.9687 3.841 25.3027 2.45925C27.2182 1.9621 28.9885 1.75339 31.004 1.62491C31.6556 1.58191 32.3085 1.56023 32.9616 1.55991H32.9621ZM32.2181 2.92389C31.5803 2.93035 30.9428 2.96084 30.3072 3.0153C22.0375 3.72065 16.2297 7.43022 11.8158 11.7746C8.72419 14.8164 6.40044 18.5427 4.86482 22.8972C3.86748 25.7232 3.34037 28.7761 3.27943 31.8636C3.27638 31.9662 3.27943 32.0693 3.27943 32.1719L3.27841 32.1724C3.26978 33.1235 3.30685 34.0767 3.38708 35.0273L3.38912 35.0578C3.62931 37.8898 4.25494 40.698 5.28173 43.3346C7.44298 48.8789 10.9809 53.3548 15.9874 56.819C19.6838 59.3794 24.6482 61.4798 30.2849 61.9556C30.3966 61.9637 30.5083 61.9774 30.6195 61.9845L30.6206 61.9855C31.9736 62.0832 33.332 62.0832 34.6851 61.9855L34.6861 61.9845C34.7948 61.9774 34.9029 61.9728 35.0121 61.9642L35.0116 61.9657L35.0345 61.9647C44.2741 61.1832 51.0356 56.4423 55.4724 50.9797C56.6068 49.5827 57.7352 48.0039 58.3923 46.1139C59.0352 44.7539 59.3495 43.8282 59.642 43.3346C60.777 40.791 61.4163 38.1133 61.6682 35.1873L61.6835 34.9862L61.6845 34.9851C61.6997 34.8018 61.7175 34.6205 61.7297 34.4347C61.7781 33.5996 61.7952 32.763 61.781 31.9266L61.7774 31.924C61.7774 31.8189 61.7764 31.7164 61.7738 31.6112C61.5778 23.0455 58.017 16.2651 53.2472 11.4953C50.6913 8.93893 47.548 6.6355 43.7937 5.238C40.6219 4.05987 37.1058 3.04425 33.1063 2.9437L33.1083 2.94573C33.0037 2.9437 32.9001 2.93913 32.7935 2.93913L32.7904 2.93557C32.598 2.93303 32.4121 2.92135 32.2176 2.92339L32.2181 2.92389ZM30.4032 4.91706L31.7185 4.92214L31.7068 7.51757C31.7058 8.19143 32.044 8.51288 32.564 8.51542C33.087 8.51796 33.4257 8.21175 33.4303 7.55768L33.4394 4.92823L34.7537 4.9328L34.745 7.52163C34.7384 9.03135 33.8741 9.68948 32.5462 9.68288C31.2183 9.67831 30.388 8.99936 30.392 7.53991L30.4032 4.91706ZM38.4927 5.58737L42.413 6.78276L42.0824 7.86796L40.7408 7.45967L39.7094 10.8417L38.4703 10.4639L39.5017 7.07983L38.1621 6.67155L38.4927 5.58737ZM24.9234 5.9921L28.2542 9.86518L26.9323 10.2892L26.3519 9.59807L24.6375 10.1485L24.5751 11.0458L23.2781 11.4612L23.7336 6.37448L24.9234 5.9921ZM24.7873 7.64655L24.6908 9.07249L25.6887 8.75409L24.7873 7.64655ZM45.9123 8.29655L46.9909 9.01256L46.022 10.468L47.4058 11.3901L48.3747 9.93425L49.4502 10.6513L46.8635 14.5396L45.7854 13.8236L46.77 12.3458L45.3857 11.4237L44.4011 12.9034L43.326 12.1849L45.9123 8.29655ZM18.1045 9.50565C18.5021 9.48331 18.8988 9.56164 19.2581 9.73341C19.6173 9.90517 19.9274 10.1648 20.1596 10.4883L20.1688 10.4994C20.9589 11.5821 20.7274 13.0974 19.5619 13.9485C18.3985 14.7965 16.903 14.5599 16.1129 13.4747L16.1042 13.463C15.3141 12.3809 15.5456 10.8661 16.7085 10.015C17.1463 9.69862 17.6287 9.53053 18.104 9.50667L18.1045 9.50565ZM18.0776 10.7356C17.8289 10.737 17.5871 10.8177 17.3875 10.9661C16.8162 11.383 16.7715 12.1265 17.1691 12.6708L17.1757 12.6825C17.5728 13.2269 18.3137 13.4138 18.8855 12.9969C19.4614 12.5754 19.5061 11.8314 19.1085 11.2871L19.1019 11.2784C18.8515 10.9367 18.4701 10.7356 18.0776 10.7356ZM32.3029 11.9122C32.4055 11.9118 32.5083 11.9127 32.6112 11.9147L32.6538 11.9569L32.696 11.9147C32.7986 11.9147 32.9006 11.9122 33.0017 11.9147L32.8072 12.1087L35.0192 14.3228L36.9083 12.4347C36.9911 12.4545 37.0759 12.4728 37.1581 12.4926L35.1736 14.4766L37.3856 16.6887L39.5997 14.4776L37.7782 12.6556C37.9204 12.6937 38.0626 12.7318 38.2027 12.7739L39.7515 14.3228L40.4863 13.589L40.7006 13.6824L39.9064 14.4766L42.1205 16.6887L43.6338 15.1754C43.6983 15.216 43.7556 15.2556 43.8191 15.2957L42.2718 16.843L44.4864 19.0551L46.1358 17.4057L46.2876 17.5596L44.6377 19.2099L46.8518 21.421L48.4951 19.7787L48.6494 19.9331L47.0067 21.5753L49.2187 23.7894L50.3927 22.6133L50.4994 22.8139L49.3726 23.9412L51.5841 26.1558L51.8949 25.8435C51.9238 25.9197 51.9528 25.9928 51.9797 26.0685L51.7385 26.3071L52.2138 26.783C52.2588 26.9279 52.3013 27.0729 52.3412 27.2182L51.5846 26.4615L49.3726 28.6756L51.5841 30.8881L52.813 29.6607L52.8485 29.9299L51.7385 31.042L52.9887 32.2922C52.9887 32.3902 52.9775 32.4862 52.975 32.5867L51.5846 31.1938L49.3726 33.4079L51.5841 35.6199L52.8612 34.3433C52.848 34.4616 52.8297 34.5799 52.8145 34.6962L51.7385 35.7743L52.4931 36.5289C52.4733 36.6142 52.4575 36.6965 52.4372 36.7813L51.5846 35.9282L49.3726 38.1402L51.3236 40.0917C51.2931 40.1628 51.2626 40.2359 51.2322 40.306L49.2187 38.2946L47.0046 40.5066L49.2187 42.7206L50.8183 41.118C50.7208 41.312 50.6314 41.511 50.5238 41.701L50.5085 41.7365L49.3726 42.873L49.7768 43.2787C49.7387 43.3437 49.7057 43.4108 49.6671 43.4753L49.2187 43.0264L47.0046 45.2384L47.7359 45.9727C47.6895 46.0265 47.6421 46.0803 47.5937 46.1342L46.8523 45.3928L44.6382 47.6068L45.3273 48.2969C45.272 48.3416 45.2176 48.3883 45.1597 48.4351L44.4859 47.7592L42.2718 49.9732L42.5308 50.2322C42.4663 50.2678 42.3972 50.3013 42.3322 50.3389L42.1179 50.1251L41.4324 50.8106C41.2404 50.9054 41.0463 50.9977 40.8499 51.0874L41.9661 49.9727L39.752 47.7587L37.54 49.9727L39.2828 51.7166C39.2077 51.743 39.1315 51.7673 39.0553 51.7948L37.3856 50.1251L35.1736 52.3391L35.4925 52.659C35.4035 52.6719 35.3143 52.6844 35.2249 52.6966L35.0192 52.4935L34.7628 52.7474C34.649 52.7611 34.5353 52.7764 34.4195 52.788L34.8649 52.3391L32.6538 50.1251L30.4393 52.3391L30.9232 52.8215C30.8112 52.8134 30.6988 52.8039 30.586 52.7931L30.2874 52.4915L30.0488 52.7301C29.9594 52.7185 29.8741 52.7002 29.7857 52.6875L30.1336 52.3391L27.9215 50.1251L26.1828 51.8638C26.1066 51.8394 26.0304 51.81 25.9543 51.7856L27.7672 49.9732L25.5551 47.7587L23.3411 49.9732L24.6842 51.3169C24.5014 51.2407 24.3232 51.161 24.1444 51.0828L23.1867 50.1251L22.8566 50.4577C22.7896 50.4216 22.7226 50.3881 22.6555 50.3531L23.0354 49.9727L20.8213 47.7592L19.9616 48.6204C19.9032 48.5757 19.8397 48.5356 19.7823 48.4909L20.669 47.6073L18.4549 45.3933L17.4611 46.386C17.4124 46.3348 17.3606 46.283 17.3118 46.2301L18.302 45.2384L16.088 43.0269L15.3567 43.7581C15.3141 43.6987 15.2755 43.6362 15.2354 43.5733L15.9367 42.8725L13.7226 40.661L13.7109 40.6721C13.5956 40.402 13.5596 40.3035 13.4814 40.1135L13.7226 40.3527L15.9367 38.1402L13.7226 35.9261L12.678 36.9722C12.6618 36.8833 12.6435 36.8011 12.6308 36.7117L13.5682 35.7743L12.3967 34.6002C12.3876 34.4926 12.3896 34.3859 12.383 34.2813L13.7226 35.6199L15.9367 33.4084L13.7226 31.1938L12.3312 32.5847C12.3312 32.4796 12.3383 32.377 12.3383 32.2719L13.5682 31.0399L12.4698 29.9416C12.479 29.8481 12.483 29.7521 12.4942 29.6607L13.7226 30.8881L15.9367 28.674L13.7226 26.4615L12.9076 27.2766C12.9416 27.1384 12.9746 26.9993 13.0127 26.8652L13.5682 26.3071L13.2849 26.0217C13.3113 25.949 13.3389 25.8745 13.3676 25.7983L13.7221 26.1558L15.9367 23.9417L14.7469 22.7519C14.7829 22.6849 14.8159 22.6174 14.8515 22.5508L16.088 23.7874L18.302 21.5758L16.6171 19.8899C16.6618 19.834 16.7111 19.7782 16.7558 19.7223L18.4544 21.4215L20.6685 19.2094L18.8947 17.4346C18.9475 17.3854 18.9972 17.3315 19.0506 17.2848L20.8228 19.0551L23.0344 16.843L21.5465 15.3541C21.6094 15.3145 21.6726 15.2758 21.7359 15.2378L23.1887 16.6897L25.4008 14.4766L24.6736 13.7494C24.7477 13.718 24.8158 13.6865 24.8899 13.658L25.5551 14.3233L26.9232 12.9522L27.3787 12.8054L25.707 14.4766L27.921 16.6887L30.1336 14.4776L28.2135 12.5551L28.4522 12.488L30.2874 14.3228L32.4995 12.1087L32.3029 11.9122ZM32.6533 12.2626L30.4418 14.4766L32.6528 16.6887L34.8679 14.4776L32.6533 12.2626ZM25.5551 14.6285L23.3411 16.843L25.5551 19.0551L27.7672 16.843L25.5551 14.629V14.6285ZM30.2874 14.6285L28.0754 16.843L30.2874 19.0551L32.4995 16.843L30.2879 14.629L30.2874 14.6285ZM35.0192 14.6285L32.8077 16.843L35.0192 19.0551L37.2333 16.843L35.0192 14.629V14.6285ZM39.7541 14.6285L37.54 16.843L39.7541 19.0551L41.9656 16.843L39.7541 14.629V14.6285ZM23.1892 16.9949L20.9747 19.2094L23.1887 21.421L25.4008 19.2094L23.1892 16.9949ZM27.9215 16.9949L25.7065 19.2094L27.9215 21.421L27.951 21.391C27.8621 21.5616 27.7834 21.7399 27.7225 21.9283L25.7065 23.9417L26.7546 24.9894L26.6815 25.2214L25.5551 24.0956L23.3411 26.3071L25.5551 28.5212L25.679 28.3983L25.5374 28.8452L23.3411 31.0425L24.4836 32.183L24.41 32.4171L23.1877 31.1943L20.9736 33.4084L23.1877 35.6199L23.4965 35.3117L23.3543 35.7606L23.3411 35.7743L23.3477 35.7814L23.2751 36.0119L23.1892 35.9261L20.9747 38.1402L22.2122 39.3777L22.1386 39.6103L20.8208 38.2946L18.6088 40.5066L20.8203 42.7212L21.3433 42.1991C21.3116 42.3241 21.2867 42.4508 21.2687 42.5785L20.9742 42.873L21.2448 43.1432C21.2484 43.2513 21.2474 43.3595 21.2601 43.4656L20.8203 43.0269L18.6088 45.2389L20.8203 47.453L22.5372 45.7381C22.5946 45.7838 22.6576 45.8208 22.718 45.862L20.9752 47.6053L23.1867 49.8194L25.4008 47.6053L24.2049 46.4109C24.3245 46.4363 24.4453 46.4554 24.5669 46.4683L25.5551 47.4535L27.7672 45.2394L27.4777 44.9499C27.517 44.8863 27.5542 44.8214 27.5894 44.7555L27.921 45.0871L30.1336 42.873L28.766 41.506L28.8386 41.2724L30.2874 42.7212L32.4995 40.5071L31.785 39.7926H32.0937L32.6538 40.3527L33.2135 39.7926H33.5222L32.8077 40.5071L35.0192 42.7212L36.728 41.0103L36.8042 41.2424L35.1741 42.8735L37.3856 45.0876L37.9254 44.5473C37.959 44.6156 37.9942 44.6827 38.0311 44.7483L37.5395 45.2394L39.752 47.4535L40.7372 46.4703C40.8286 46.4774 40.9185 46.4917 41.0109 46.4917L41.0231 46.4907L39.9059 47.6078L42.1179 49.8199L44.332 47.6058L42.7492 46.0224C42.8131 45.9854 42.866 45.9356 42.9269 45.8945L44.4864 47.4535L46.6979 45.2394L44.4864 43.0274L44.4234 43.0898C44.4254 42.9426 44.4315 42.7968 44.4138 42.6485L44.4864 42.7212L46.6979 40.5071L44.4864 38.2951L43.4037 39.3747L43.3276 39.1451L44.332 38.1407L42.3277 36.1364L42.1469 35.591L44.3305 33.4084L42.1174 31.1943L41.0429 32.2704L40.9672 32.0393L41.9661 31.043L39.974 29.0503L39.7861 28.4877L41.9661 26.3076L39.752 24.0961L38.6826 25.1651L38.6064 24.935L39.6002 23.9423L37.6197 21.9643L37.5999 21.9034C37.5454 21.7344 37.4771 21.5702 37.3958 21.4123L39.5997 19.2099L37.3856 16.9959L35.1736 19.2099L35.8866 19.9229C35.7213 19.8403 35.5498 19.7707 35.3737 19.7147L35.0192 19.3613L34.7943 19.5883C34.7005 19.5767 34.6063 19.5689 34.5119 19.5649L34.8679 19.2099L32.6538 16.9959L30.4418 19.2099L30.7973 19.5659C30.7022 19.5689 30.6073 19.5764 30.5129 19.5883L30.2874 19.3638L29.936 19.7152C29.7561 19.773 29.581 19.845 29.4125 19.9305L30.1336 19.2099L27.9215 16.9949ZM42.12 16.9949L39.9059 19.2094L42.12 21.421L44.332 19.2094L42.1205 16.9954L42.12 16.9949ZM20.8223 19.3613L18.6088 21.5753L20.8228 23.7874L23.0344 21.5758L20.8233 19.3608L20.8223 19.3613ZM25.5551 19.3613L23.3411 21.5753L25.5551 23.7874L27.7672 21.5758L25.5551 19.3613ZM39.7541 19.3633L37.54 21.5753L39.7515 23.7894L41.9661 21.5753L39.7541 19.3633ZM44.4859 19.3633L42.2718 21.5753L44.4864 23.7894L46.6979 21.5753L44.4864 19.3638L44.4859 19.3633ZM30.9745 20.2007H34.3459C35.5169 20.2007 36.6178 20.971 36.984 22.105L43.6515 42.1839C44.1269 43.6474 43.357 45.2237 41.8925 45.7015C41.6076 45.7935 41.3102 45.8408 41.0109 45.8417C39.8409 45.8417 38.7562 45.1145 38.3744 43.9424L36.8011 39.1406H28.8143L27.3477 43.9039C27.1653 44.465 26.8102 44.9542 26.3331 45.3014C25.856 45.6486 25.2814 45.8361 24.6913 45.8371C24.3988 45.8365 24.1082 45.7908 23.8296 45.7015C22.3656 45.2612 21.5597 43.6855 21.9989 42.2189L28.3364 22.1426C28.702 21.0066 29.7649 20.2007 30.9745 20.2007ZM18.4544 21.7302L16.2424 23.9417L18.4544 26.1563L20.6685 23.9423L18.4544 21.7302ZM23.1887 21.7302L20.9747 23.9417L23.1887 26.1563L25.4008 23.9423L23.1887 21.7302ZM42.1205 21.7302L39.9059 23.9417L42.12 26.1563L44.332 23.9423L42.1205 21.7302ZM46.8523 21.7302L44.6382 23.9417L46.8523 26.1563L49.0643 23.9423L46.8523 21.7302ZM16.0875 24.0956L13.876 26.3076L16.0875 28.5217L18.3015 26.3076L16.0875 24.0956ZM20.8203 24.0956L18.6083 26.3076L20.8203 28.5217L23.0354 26.3076L20.8203 24.0956ZM44.4859 24.0956L42.2718 26.3076L44.4859 28.5217L46.6974 26.3076L44.4859 24.0956ZM49.2182 24.0956L47.0036 26.3076L49.2177 28.5217L51.4302 26.3076L49.2182 24.0956ZM18.4529 26.462L16.2418 28.674L18.4534 30.8881L20.6674 28.674L18.4529 26.462ZM23.1872 26.462L20.9731 28.674L23.1882 30.8881L25.3997 28.674L23.1872 26.462ZM42.1195 26.462L39.9054 28.6761L42.1169 30.8886L44.3305 28.6746L42.1195 26.462ZM46.8513 26.462L44.6367 28.674L46.8523 30.8881L49.0638 28.6766L46.8508 26.4625L46.8513 26.462ZM16.0875 28.8284L13.876 31.041L16.0875 33.255L18.3015 31.041L16.0875 28.8284ZM20.8208 28.8284L18.6088 31.0435L20.8203 33.254L23.0354 31.0405L20.8208 28.8284ZM44.4864 28.8284L42.2723 31.0435L44.4864 33.2545L46.6974 31.0435L44.4859 28.8289L44.4864 28.8284ZM49.2177 28.8284L47.0031 31.0425L49.2172 33.2535L51.4292 31.0425L49.2177 28.8284ZM18.4529 31.1948L16.2408 33.4094L18.4529 35.6214L20.6669 33.4104L18.4529 31.1948ZM46.8503 31.1948L44.6367 33.4089L46.8523 35.6209L49.0633 33.4099L46.8503 31.1948ZM16.088 33.5612L13.8765 35.7758L16.088 37.9873L18.302 35.7758L16.088 33.5617V33.5612ZM20.8213 33.5612L18.6093 35.7758L20.8208 37.9873L23.0359 35.7758L20.8218 33.5617L20.8213 33.5612ZM44.4869 33.5612L42.2728 35.7758L44.4869 37.9873L46.6979 35.7758L44.4864 33.5617L44.4869 33.5612ZM49.2187 33.5612L47.0031 35.7753L49.2172 37.9868L51.4292 35.7753L49.2187 33.5612ZM18.4539 35.9261L16.2424 38.1402L18.4544 40.3532L20.6685 38.1407L18.4544 35.9266L18.4539 35.9261ZM46.8518 35.9287L44.6377 38.1407L46.8518 40.3532L49.0638 38.1407L46.8518 35.9287ZM16.0885 38.2951L13.8765 40.5071L16.088 42.7212L18.302 40.5071L16.0885 38.2951ZM18.4549 40.6605L16.2424 42.874L18.4544 45.0881L20.6685 42.874L18.4544 40.662L18.4549 40.6605ZM32.6533 40.6605L30.4393 42.8735L32.6533 45.0876L34.8649 42.8735L32.6538 40.6615L32.6533 40.6605ZM46.8518 40.6605L44.6377 42.8735L46.8518 45.0876L49.0643 42.8735L46.8528 40.6615L46.8518 40.6605ZM30.2869 43.0269L28.0729 45.2389L30.2869 47.453L32.5 45.2394L30.2885 43.0279L30.2869 43.0269ZM35.0197 43.0269L32.8077 45.2389L35.0192 47.453L37.2333 45.2389L35.0197 43.0269ZM27.921 45.3933L25.706 47.6058L27.921 49.8199L30.1326 47.6058L27.921 45.3933ZM32.6523 45.3933L30.4388 47.6058L32.6528 49.8199L34.8643 47.6083L32.6533 45.3943L32.6523 45.3933ZM37.3851 45.3933L35.1731 47.6083L37.3851 49.8204L39.5992 47.6083L37.3851 45.3943V45.3933ZM30.2869 47.7597L28.0729 49.9742L30.2869 52.1858L32.499 49.9742L30.2869 47.7597ZM35.0187 47.7597L32.8072 49.9742L35.0187 52.1858L37.2328 49.9742L35.0187 47.7597ZM47.9233 49.8986C48.2709 49.9091 48.6119 49.9961 48.9221 50.1533C49.2323 50.3106 49.504 50.5343 49.7179 50.8086L49.727 50.8203C50.5598 51.874 50.3856 53.3964 49.2537 54.2912C48.1218 55.1844 46.6197 55.0031 45.7869 53.9499L45.7778 53.9408C44.9475 52.8871 45.1227 51.3626 46.2541 50.4699C46.6474 50.1533 47.1243 49.9578 47.6267 49.9072C47.7255 49.8985 47.8242 49.8957 47.9233 49.8986ZM18.9475 51.0346L20.057 51.7018L19.1435 53.2242L20.5704 54.0769L21.483 52.5544L22.5926 53.2197L20.1906 57.2263L19.0815 56.5611L19.9783 55.0615L18.5544 54.2084L17.6551 55.709L16.5455 55.0412L18.9475 51.0346ZM47.645 51.1412C47.3974 51.1503 47.1593 51.239 46.966 51.3941C46.4054 51.8359 46.3897 52.5814 46.8071 53.1105L46.8162 53.1191C47.2331 53.6483 47.9796 53.8087 48.5397 53.3649C49.0958 52.9272 49.111 52.1842 48.6941 51.6551L48.684 51.6434C48.4224 51.3128 48.035 51.126 47.645 51.1412ZM42.6445 53.1085L42.412 58.211L41.2404 58.6436L37.7421 54.9234L39.0436 54.441L39.653 55.1037L41.343 54.4785L41.3674 53.5812L42.6445 53.1085ZM26.2574 54.4273L27.5077 54.7644L26.586 58.18L27.9388 58.5456L27.6443 59.6399L23.6884 58.5725L23.9829 57.4762L25.3358 57.8428L26.2574 54.4273ZM33.4587 55.2844C34.7841 55.2271 35.6484 55.8623 35.7134 57.3228L35.8277 59.9431L34.515 60.001L34.4007 57.4071C34.3697 56.7332 34.0163 56.4301 33.4968 56.4519C32.9763 56.4748 32.6508 56.7957 32.6777 57.4503L32.7935 60.0772L31.4813 60.1351L31.3665 57.5478C31.3005 56.0416 32.1308 55.3423 33.4587 55.285V55.2844ZM41.3359 55.5566L40.3538 55.9207L41.3024 56.9856L41.3369 55.5566H41.3359Z" fill="#545454"/>
</g>
<defs>
<clipPath id="clip0_10_245">
<rect width="65" height="65" fill="white"/>
</clipPath>
</defs>
</svg>
