<svg width="65" height="65" viewBox="0 0 65 65" fill="none" xmlns="http://www.w3.org/2000/svg">
<g clip-path="url(#clip0_10_233)">
<path d="M49.7656 0H15.2344C6.82066 0 0 6.82066 0 15.2344V49.7656C0 58.1793 6.82066 65 15.2344 65H49.7656C58.1793 65 65 58.1793 65 49.7656V15.2344C65 6.82066 58.1793 0 49.7656 0Z" fill="#007ACC"/>
<path d="M14.3739 32.7155L14.3533 35.3775H22.8135V59.4171H28.7978V35.3775H37.258V32.7671C37.258 31.3226 37.2272 30.1155 37.1859 30.0846C37.1549 30.0434 32.0064 30.0226 25.7644 30.033L14.4049 30.064L14.3739 32.7155ZM52.4487 29.9883C54.0993 30.4012 55.3582 31.1337 56.5137 32.3304C57.1122 32.9702 57.9993 34.1361 58.0717 34.4147C58.0922 34.4972 55.2652 36.3957 53.5526 37.4583C53.4907 37.4996 53.2429 37.2313 52.9644 36.8187C52.1287 35.6012 51.2518 35.0748 49.9104 34.9822C47.9398 34.8478 46.6708 35.8797 46.6812 37.6027C46.6812 38.1083 46.7533 38.4074 46.9597 38.8202C47.3929 39.7178 48.1978 40.2543 50.7257 41.3478C55.3787 43.3496 57.3699 44.6702 58.6082 46.5478C59.9907 48.6423 60.3002 51.9853 59.3613 54.4718C58.3296 57.1748 55.7708 59.0113 52.1699 59.6202C51.0557 59.8162 48.4143 59.7852 47.2177 59.5687C44.6073 59.1043 42.1312 57.8147 40.6042 56.1227C40.0057 55.4622 38.8398 53.7392 38.9122 53.6153C38.9429 53.5742 39.2113 53.4092 39.5104 53.2337C39.7993 53.0687 40.8931 52.4392 41.9248 51.8408L43.7922 50.7574L44.1843 51.3353C44.7312 52.1709 45.9278 53.3162 46.6502 53.6978C48.7239 54.7917 51.5717 54.6368 52.9748 53.3782C53.5732 52.8313 53.8208 52.2638 53.8208 51.4282C53.8208 50.6748 53.7278 50.3448 53.3358 49.7773C52.8303 49.0552 51.7987 48.4463 48.8683 47.1773C45.5152 45.7328 44.0708 44.8352 42.7502 43.4113C41.9867 42.5861 41.2643 41.2653 40.9652 40.1613C40.7177 39.2432 40.6557 36.9423 40.8518 36.0138C41.5429 32.7742 43.9883 30.5147 47.5168 29.8439C48.6622 29.6273 51.3239 29.7098 52.4487 29.9883Z" fill="white"/>
</g>
<defs>
<clipPath id="clip0_10_233">
<rect width="65" height="65" fill="white"/>
</clipPath>
</defs>
</svg>
