<svg width="65" height="65" viewBox="0 0 65 65" fill="none" xmlns="http://www.w3.org/2000/svg">
<g clip-path="url(#clip0_10_238)">
<path d="M15.4416 4.49304H50.0434L60.1826 17.8424L31.494 58.3643L4.81329 17.8424L15.4416 4.49304Z" fill="#18253F"/>
<path d="M38.4482 48.7932H24.8861L18.7609 39.3365L36.1189 39.3359L36.1194 37.9943H46.0416L38.4482 48.7932Z" fill="#274D82"/>
<path d="M57.2711 14.0352L19.8499 41.2811L14.9683 33.5797L43.9387 12.4861L43.4065 11.3235L51.123 5.70531L57.2711 14.0352ZM37.2216 4.50649L9.12285 24.9648L4.75287 18.0854L23.5661 4.3877L37.2216 4.50649Z" fill="#274D82"/>
<g filter="url(#filter0_d_10_238)">
<path d="M51.3957 0.483521H14.1248L0.507812 17.5676L31.4234 64.5162L33.8899 61.0261L64.4922 17.7284L51.3957 0.483521ZM50.0343 4.50584L60.1499 17.826L31.5093 58.3495L4.82422 17.826L15.4413 4.50584H50.0343Z" fill="black"/>
</g>
<path d="M51.3957 0.483521H14.1248L0.507812 17.5676L31.4234 64.5162L33.8899 61.0261L64.4922 17.7284L51.3957 0.483521ZM50.0343 4.50584L60.1499 17.826L31.5093 58.3495L4.82422 17.826L15.4413 4.50584H50.0343Z" fill="black"/>
</g>
<defs>
<filter id="filter0_d_10_238" x="-2.49219" y="-2.51648" width="71.9844" height="72.0327" filterUnits="userSpaceOnUse" color-interpolation-filters="sRGB">
<feFlood flood-opacity="0" result="BackgroundImageFix"/>
<feColorMatrix in="SourceAlpha" type="matrix" values="0 0 0 0 0 0 0 0 0 0 0 0 0 0 0 0 0 0 127 0" result="hardAlpha"/>
<feOffset dx="1" dy="1"/>
<feGaussianBlur stdDeviation="2"/>
<feColorMatrix type="matrix" values="0 0 0 0 0 0 0 0 0 0 0 0 0 0 0 0 0 0 0.36 0"/>
<feBlend mode="normal" in2="BackgroundImageFix" result="effect1_dropShadow_10_238"/>
<feBlend mode="normal" in="SourceGraphic" in2="effect1_dropShadow_10_238" result="shape"/>
</filter>
<clipPath id="clip0_10_238">
<rect width="65" height="65" fill="white"/>
</clipPath>
</defs>
</svg>
