<svg width="65" height="65" viewBox="0 0 65 65" fill="none" xmlns="http://www.w3.org/2000/svg">
<g clip-path="url(#clip0_10_109)">
<path d="M49.7656 0H15.2344C6.82066 0 0 6.82066 0 15.2344V49.7656C0 58.1793 6.82066 65 15.2344 65H49.7656C58.1793 65 65 58.1793 65 49.7656V15.2344C65 6.82066 58.1793 0 49.7656 0Z" fill="#2B2E3A"/>
<path d="M25.5856 17.9695C18.9828 16.767 13.762 18.0256 11.6812 21.6295C10.1286 24.3189 10.5724 27.8845 12.7578 31.6959C12.812 31.7949 12.89 31.8788 12.9848 31.94C13.0796 32.0012 13.1882 32.0378 13.3007 32.0464C13.4132 32.0551 13.5261 32.0355 13.6292 31.9894C13.7322 31.9434 13.8221 31.8723 13.8907 31.7827C13.9454 31.711 13.9852 31.6291 14.0078 31.5418C14.0304 31.4546 14.0354 31.3636 14.0225 31.2744C14.0093 31.1852 13.9787 31.0996 13.9324 31.0223C11.9641 27.589 11.5809 24.5119 12.854 22.3067C14.5826 19.3129 19.2392 18.1901 25.3429 19.3017C25.5183 19.3309 25.6981 19.29 25.8436 19.1877C25.989 19.0854 26.0884 18.93 26.1203 18.7551C26.1522 18.5802 26.114 18.3997 26.0139 18.2527C25.9139 18.1057 25.7601 18.004 25.5856 17.9695ZM16.1914 36.3287C18.8612 39.2625 22.3298 42.0146 26.2857 44.2983C35.8638 49.8284 46.0606 51.3063 51.0859 47.8799C51.1612 47.8306 51.2258 47.7668 51.276 47.6922C51.3262 47.6176 51.3611 47.5337 51.3784 47.4454C51.405 47.3126 51.391 47.1748 51.3383 47.05C51.2855 46.9252 51.1964 46.8192 51.0826 46.7457C50.969 46.6719 50.8359 46.634 50.7004 46.6367C50.565 46.6395 50.4335 46.6828 50.323 46.7612C45.8253 49.8278 36.1392 48.4237 26.9628 43.1257C23.1253 40.9101 19.7664 38.2451 17.193 35.4171C17.1332 35.351 17.061 35.2973 16.9804 35.2592C16.8999 35.221 16.8126 35.1991 16.7235 35.1947C16.6345 35.1902 16.5454 35.2034 16.4615 35.2335C16.3775 35.2636 16.3004 35.3099 16.2344 35.37C16.1685 35.43 16.115 35.5024 16.0772 35.5832C16.0393 35.6639 16.0178 35.7513 16.0139 35.8404C16.0099 35.9295 16.0235 36.0184 16.054 36.1022C16.0844 36.186 16.1311 36.2629 16.1914 36.3287Z" fill="#9FEAF9"/>
<path d="M49.4828 35.505C53.8063 30.3974 55.3158 25.2604 53.2393 21.664C51.7116 19.0176 48.4816 17.6203 44.1888 17.5645C44.0561 17.5645 43.9263 17.6036 43.8157 17.6769C43.705 17.7501 43.6183 17.8543 43.5663 17.9764C43.5144 18.0986 43.4995 18.2333 43.5235 18.3638C43.5475 18.4943 43.6093 18.6149 43.7013 18.7106C43.8246 18.8389 43.9934 18.9136 44.1713 18.9185C48.032 18.9688 50.8148 20.1726 52.0668 22.3412C53.7913 25.3284 52.4451 29.9094 48.4491 34.63C48.3904 34.6977 48.3457 34.7763 48.3177 34.8614C48.2897 34.9465 48.2789 35.0363 48.2859 35.1256C48.2927 35.215 48.3174 35.3018 48.3582 35.3816C48.3988 35.4614 48.4549 35.5324 48.5233 35.5903C48.5916 35.6482 48.6709 35.6919 48.7564 35.7188C48.8419 35.7459 48.9318 35.7558 49.0209 35.7477C49.1101 35.7395 49.1968 35.714 49.2761 35.6725C49.3556 35.6309 49.4257 35.574 49.4828 35.505ZM38.3716 18.1949C34.4625 19.0325 30.3014 20.6702 26.3055 22.9772C16.4178 28.6858 9.96786 37.1036 10.8636 43.2072C10.8755 43.2961 10.9049 43.3817 10.9501 43.459C10.9954 43.5364 11.0556 43.604 11.1272 43.6579C11.2349 43.7394 11.3646 43.7866 11.4995 43.7937C11.6344 43.8007 11.7682 43.7671 11.8838 43.6972C11.9607 43.6511 12.0276 43.5902 12.0806 43.5179C12.1337 43.4457 12.1718 43.3636 12.1928 43.2765C12.2138 43.1894 12.2174 43.099 12.2035 43.0104C11.408 37.5911 17.5221 29.6121 26.9826 24.15C30.859 21.9118 34.888 20.3262 38.6552 19.519C38.7655 19.4971 38.8687 19.4481 38.9553 19.3764C39.042 19.3046 39.1094 19.2125 39.1516 19.1082C39.1938 19.0039 39.2093 18.8908 39.1969 18.779C39.1844 18.6672 39.1443 18.5603 39.0802 18.4679C39.0288 18.3942 38.9633 18.3315 38.8874 18.2833C38.8116 18.2351 38.727 18.2024 38.6384 18.187C38.5498 18.1721 38.4592 18.1748 38.3716 18.1949Z" fill="#9FEAF9"/>
<path d="M22.3529 47.4386C24.6137 53.7507 28.3118 57.6372 32.4703 57.6372C35.5032 57.6372 38.3091 55.5697 40.4973 51.9299C40.5446 51.8537 40.5763 51.7688 40.5906 51.6802C40.6048 51.5916 40.6013 51.501 40.5803 51.4137C40.5595 51.3264 40.5214 51.2441 40.4683 51.1716C40.4153 51.0991 40.3483 51.0379 40.2713 50.9917C40.1943 50.9454 40.1089 50.915 40.02 50.9021C39.9311 50.8893 39.8405 50.8943 39.7536 50.9169C39.6667 50.9393 39.5852 50.9788 39.5136 51.0329C39.4421 51.087 39.382 51.1548 39.3367 51.2322C37.3702 54.5033 34.9548 56.2829 32.4703 56.2829C29.0159 56.2829 25.7174 52.8166 23.628 46.9823C23.5995 46.8969 23.5541 46.818 23.4947 46.7503C23.4352 46.6826 23.3628 46.6275 23.2817 46.5883C23.1597 46.5287 23.0226 46.5074 22.8882 46.5269C22.7539 46.5465 22.6286 46.6061 22.5286 46.6979C22.4623 46.7589 22.4088 46.8324 22.3711 46.9142C22.3335 46.9961 22.3124 47.0845 22.3092 47.1745C22.3062 47.2647 22.3209 47.3545 22.3529 47.4386ZM43.0011 46.2038C44.1716 42.4643 44.8 38.1504 44.8 33.655C44.8 22.4377 40.8738 12.7679 35.2818 10.285C35.1184 10.2166 34.9348 10.2149 34.7702 10.2803C34.6056 10.3457 34.4732 10.4729 34.4013 10.6348C34.3294 10.7967 34.3238 10.9803 34.3857 11.1462C34.4476 11.3122 34.572 11.4473 34.7323 11.5225C39.7198 13.7374 43.4456 22.9143 43.4456 33.655C43.4456 38.0164 42.837 42.1939 41.7089 45.7994C41.6668 45.9278 41.664 46.0659 41.7009 46.1959C41.7378 46.326 41.8128 46.442 41.9161 46.5291C42.0197 46.6159 42.1468 46.6698 42.2812 46.6839C42.4155 46.6981 42.5511 46.6719 42.6705 46.6086C42.7497 46.5664 42.8197 46.5089 42.8765 46.4394C42.9333 46.3699 42.9754 46.2898 43.0011 46.2038ZM55.7532 45.5406C55.7532 43.7509 54.3024 42.3 52.5126 42.3C50.7229 42.3 49.272 43.7509 49.272 45.5406C49.272 47.3304 50.7229 48.7812 52.5126 48.7812C54.3024 48.7812 55.7532 47.3304 55.7532 45.5406ZM54.3992 45.5406C54.3992 45.7885 54.3504 46.0337 54.2554 46.2625C54.1608 46.4915 54.0219 46.6996 53.8467 46.8748C53.6715 47.05 53.4635 47.189 53.2345 47.2837C52.9479 47.4023 52.6364 47.4484 52.3277 47.4179C52.019 47.3874 51.7226 47.2813 51.4647 47.1089C51.2068 46.9366 50.9953 46.7033 50.8491 46.4298C50.7028 46.1562 50.6262 45.8508 50.6261 45.5406C50.6263 45.1676 50.7371 44.803 50.9444 44.4929C51.1518 44.1828 51.4464 43.9411 51.791 43.7984C52.1356 43.6556 52.5148 43.6182 52.8807 43.6909C53.2466 43.7635 53.5827 43.943 53.8467 44.2066C54.0218 44.3818 54.1608 44.5898 54.2556 44.8187C54.3504 45.0476 54.3992 45.2929 54.3992 45.5406ZM12.3812 48.7812C14.1713 48.7812 15.6221 47.3304 15.6221 45.5406C15.6221 43.7509 14.171 42.3 12.3812 42.3C10.5914 42.3 9.14062 43.7509 9.14062 45.5406C9.14062 47.3304 10.5917 48.7812 12.3812 48.7812ZM12.3812 47.4272C12.0082 47.4271 11.6435 47.3164 11.3333 47.109C11.0231 46.9017 10.7814 46.6071 10.6386 46.2624C10.4958 45.9178 10.4584 45.5385 10.5312 45.1726C10.6039 44.8066 10.7835 44.4705 11.0472 44.2066C11.3111 43.9429 11.6472 43.7633 12.0132 43.6906C12.3791 43.6178 12.7583 43.6552 13.103 43.798C13.4477 43.9408 13.7423 44.1825 13.9496 44.4927C14.1569 44.8029 14.2677 45.1676 14.2678 45.5406C14.2678 46.041 14.069 46.5208 13.7152 46.8746C13.3614 47.2284 12.8816 47.4272 12.3812 47.4272Z" fill="#9FEAF9"/>
<path d="M32.4703 13.5906C34.2601 13.5906 35.7109 12.1398 35.7109 10.35C35.7109 8.5602 34.2601 7.10938 32.4703 7.10938C30.6805 7.10938 29.2297 8.5602 29.2297 10.35C29.2297 12.1398 30.6805 13.5906 32.4703 13.5906ZM32.4703 12.2365C31.9699 12.2365 31.49 12.0377 31.1362 11.6839C30.7824 11.3301 30.5836 10.8502 30.5836 10.3499C30.5836 9.84948 30.7824 9.36961 31.1362 9.01579C31.49 8.66197 31.9699 8.4632 32.4703 8.4632C32.9707 8.4632 33.4505 8.66197 33.8044 9.01579C34.1582 9.36961 34.3569 9.84948 34.3569 10.3499C34.3569 10.8502 34.1582 11.3301 33.8044 11.6839C33.4505 12.0377 32.9707 12.2365 32.4703 12.2365ZM32.9652 35.9468C31.6994 36.2202 30.4525 35.4159 30.1785 34.1501C30.1135 33.8492 30.1083 33.5383 30.1634 33.2354C30.2185 32.9325 30.3327 32.6433 30.4996 32.3845C30.6664 32.1257 30.8826 31.9023 31.1358 31.7271C31.389 31.5519 31.6742 31.4282 31.9752 31.3633C33.2409 31.0898 34.4878 31.8942 34.7621 33.1599C35.0355 34.4256 34.2311 35.6728 32.9652 35.9468Z" fill="#9FEAF9"/>
</g>
<defs>
<clipPath id="clip0_10_109">
<rect width="65" height="65" fill="white"/>
</clipPath>
</defs>
</svg>
