<svg width="65" height="65" viewBox="0 0 65 65" fill="none" xmlns="http://www.w3.org/2000/svg">
<path d="M49.3431 31.5798C51.274 31.709 53.1861 31.1325 54.7236 29.9573C56.2612 28.7822 57.3195 27.0886 57.7017 25.1915C57.2284 24.4577 56.5786 23.8543 55.8117 23.4366C55.0448 23.019 54.1854 22.8003 53.3122 22.8008C48.6972 22.6951 46.2211 28.1856 49.3451 31.5818L49.3431 31.5798ZM30.7023 9.54075L41.5878 3.23575L38.1184 1.27966L23.1055 9.97544L24.3019 10.6417L26.5748 11.9193L30.7023 9.5306V9.54075ZM42.9833 2.65482C43.1641 2.70966 43.3103 2.85794 43.3652 3.03669L48.4108 18.46C48.4572 18.5877 48.4572 18.7277 48.4108 18.8555C48.3644 18.9832 48.2745 19.0906 48.1569 19.1587C46.2119 20.3024 44.6972 22.0543 43.8467 24.1442C42.9961 26.2341 42.8569 28.5458 43.4505 30.7226C44.0932 33.0719 45.5483 35.1171 47.5572 36.4944C49.566 37.8716 51.9982 38.4917 54.4212 38.2443C54.5562 38.2341 54.6908 38.269 54.8037 38.3437C54.9166 38.4183 55.0015 38.5285 55.0448 38.6567L60.2509 54.5065C60.2916 54.6347 60.2888 54.7727 60.2429 54.8991C60.197 55.0255 60.1105 55.1332 59.997 55.2053L44.0334 64.8964C43.9515 64.9408 43.8605 64.9658 43.7673 64.9695C43.6966 64.9846 43.6235 64.985 43.5525 64.9707C43.4816 64.9564 43.4144 64.9276 43.355 64.8862L37.7386 61.2361C37.6412 61.1717 37.5644 61.0808 37.5172 60.974L26.5566 34.779L9.86172 44.6814C9.82922 44.7037 9.78656 44.724 9.75609 44.7464C9.67025 44.7798 9.57794 44.7933 9.48611 44.7859C9.39429 44.7786 9.30533 44.7504 9.22593 44.7037L5.44984 42.4836C5.31687 42.4113 5.21776 42.2895 5.17403 42.1446C5.1303 41.9997 5.14547 41.8434 5.21625 41.7097L21.3708 9.7195C21.4273 9.6008 21.5246 9.50637 21.645 9.45341L37.8117 0.0913792C37.9008 0.0373705 38.0027 0.00797413 38.1069 0.00618988C38.2111 0.00440563 38.3139 0.0302973 38.4048 0.0812229L42.9833 2.65482ZM26.0792 13.0142L22.1548 10.8022L6.52843 41.7361L9.36406 43.4078L22.8333 25.0961C22.893 25.008 22.9763 24.9385 23.0736 24.8954C23.1709 24.8523 23.2784 24.8374 23.3837 24.8523C23.4881 24.8642 23.5875 24.9038 23.6714 24.9671C23.7553 25.0303 23.8208 25.1148 23.8611 25.2118L38.543 60.3443L42.4694 62.8854L26.0914 13.0142H26.0792ZM53.3102 34.4581C48.7277 34.4581 45.6178 29.8025 47.3728 25.5693C49.1197 21.3383 54.6102 20.2495 57.8459 23.4873C59.0545 24.6918 59.7309 26.3229 59.7309 28.0272C59.7328 28.8714 59.5681 29.7078 59.2462 30.4883C58.9244 31.2689 58.4517 31.9782 57.8552 32.5758C57.2588 33.1734 56.5503 33.6474 55.7704 33.9708C54.9905 34.2941 54.1544 34.4584 53.3102 34.4581Z" fill="#545454"/>
</svg>
