<svg width="65" height="65" viewBox="0 0 65 65" fill="none" xmlns="http://www.w3.org/2000/svg">
<g clip-path="url(#clip0_10_120)">
<path d="M49.7656 0H15.2344C6.82066 0 0 6.82066 0 15.2344V49.7656C0 58.1793 6.82066 65 15.2344 65H49.7656C58.1793 65 65 58.1793 65 49.7656V15.2344C65 6.82066 58.1793 0 49.7656 0Z" fill="#242938"/>
<mask id="mask0_10_120" style="mask-type:luminance" maskUnits="userSpaceOnUse" x="15" y="7" width="35" height="51">
<path d="M15.4883 7.10938H49.3492V57.8906H15.4883V7.10938Z" fill="white"/>
</mask>
<g mask="url(#mask0_10_120)">
<path d="M23.9553 57.8906C28.6272 57.8906 32.4187 54.099 32.4187 49.4272V40.9634H23.9553C19.2834 40.9634 15.4916 44.7553 15.4916 49.4272C15.4916 54.099 19.2834 57.8906 23.9553 57.8906Z" fill="#0ACF83"/>
<path d="M15.4916 32.5C15.4916 27.8281 19.2834 24.0366 23.9553 24.0366H32.4187V40.9635H23.9553C19.2834 40.9635 15.4916 37.1719 15.4916 32.5Z" fill="#A259FF"/>
<path d="M15.4916 15.5728C15.4916 10.901 19.2834 7.10938 23.9553 7.10938H32.4187V24.0365H23.9553C19.2834 24.0365 15.4916 20.2447 15.4916 15.5728Z" fill="#F24E1E"/>
<path d="M32.4188 7.10938H40.8822C45.5541 7.10938 49.3459 10.901 49.3459 15.5728C49.3459 20.2447 45.5541 24.0365 40.8822 24.0365H32.4188V7.10938Z" fill="#FF7262"/>
<path d="M49.3459 32.5C49.3459 37.1719 45.5541 40.9635 40.8822 40.9635C36.2103 40.9635 32.4188 37.1719 32.4188 32.5C32.4188 27.8281 36.2103 24.0366 40.8822 24.0366C45.5541 24.0366 49.3459 27.8281 49.3459 32.5Z" fill="#1ABCFE"/>
</g>
</g>
<defs>
<clipPath id="clip0_10_120">
<rect width="65" height="65" fill="white"/>
</clipPath>
</defs>
</svg>
