<svg width="100" height="38" viewBox="0 0 100 38" fill="none" xmlns="http://www.w3.org/2000/svg">
<g clip-path="url(#clip0_10_104)">
<path d="M73.5973 30.907L76.4862 23.6018H84.8274L80.869 12.5199L85.8198 0L100 37.6502H89.5426L87.1194 30.907H73.5973Z" fill="#3D3D3D"/>
<path d="M64.6758 37.6504L79.8561 0L69.792 0.000195313L59.4078 24.3305L52.0236 0.000195313H44.2879L36.3592 24.3305L30.7676 13.2437L25.7076 28.833L30.8451 37.6504H40.7494L47.9141 15.8313L54.7453 37.6504H64.6758Z" fill="#5A0FC8"/>
<path d="M9.55312 24.7256H15.752C17.6297 24.7256 19.3018 24.516 20.7682 24.0967L22.3713 19.1578L26.8518 5.3543C26.5076 4.80956 26.1164 4.29601 25.6826 3.81953C23.3821 1.27318 20.0162 0 15.585 0H0V37.6504H9.55312V24.7256ZM17.7582 8.66172C18.6568 9.56602 19.1061 10.7763 19.1061 12.2926C19.1061 13.8203 18.7109 15.032 17.9207 15.9275C17.0544 16.9226 15.4594 17.4201 13.1355 17.4201H9.55312V7.30547H13.1617C15.3277 7.30547 16.8599 7.75742 17.7582 8.66172Z" fill="#3D3D3D"/>
</g>
<defs>
<clipPath id="clip0_10_104">
<rect width="100" height="37.6953" fill="white"/>
</clipPath>
</defs>
</svg>
