<svg width="65" height="65" viewBox="0 0 65 65" fill="none" xmlns="http://www.w3.org/2000/svg">
<g clip-path="url(#clip0_10_134)">
<path d="M49.7656 0H15.2344C6.82066 0 0 6.82066 0 15.2344V49.7656C0 58.1793 6.82066 65 15.2344 65H49.7656C58.1793 65 65 58.1793 65 49.7656V15.2344C65 6.82066 58.1793 0 49.7656 0Z" fill="#242938"/>
<path d="M47.7098 42.8406C48.0553 47.2809 48.0553 49.3624 48.0553 51.6344H37.7818C37.7818 51.1395 37.7907 50.6868 37.7996 50.2277C37.8275 48.8005 37.8564 47.3124 37.6251 44.3071C37.3197 39.9072 35.425 38.9297 31.9412 38.9297H15.7828V30.9245H32.4302C36.8307 30.9245 39.031 29.5859 39.031 26.0416C39.031 22.9249 36.8307 21.0364 32.4302 21.0364H15.7828V13.2031H34.2637C44.2259 13.2031 49.1766 17.9085 49.1766 25.4246C49.1766 31.0466 45.693 34.713 40.9866 35.3242C44.9595 36.1187 47.2819 38.3797 47.7098 42.8406Z" fill="white"/>
<path d="M47.7098 42.8406C48.0553 47.2809 48.0553 49.3624 48.0553 51.6344H37.7818C37.7818 51.1395 37.7907 50.6868 37.7996 50.2277C37.8275 48.8005 37.8564 47.3124 37.6251 44.3071C37.3197 39.9072 35.425 38.9297 31.9412 38.9297H15.7828V30.9245H32.4302C36.8307 30.9245 39.031 29.5859 39.031 26.0416C39.031 22.9249 36.8307 21.0364 32.4302 21.0364H15.7828V13.2031H34.2637C44.2259 13.2031 49.1766 17.9085 49.1766 25.4246C49.1766 31.0466 45.693 34.713 40.9866 35.3242C44.9595 36.1187 47.2819 38.3797 47.7098 42.8406Z" fill="white"/>
<path d="M15.7828 51.6344V45.6668H26.6457C28.4601 45.6668 28.8542 47.0125 28.8542 47.8151V51.6344H15.7828Z" fill="white"/>
<path d="M15.7422 51.6344V51.675H28.8948V47.8151C28.8948 47.4084 28.7953 46.8617 28.4629 46.4156C28.1293 45.9675 27.5643 45.6262 26.6457 45.6262H15.7422V51.6344Z" stroke="white" stroke-opacity="0.8" stroke-width="0.32"/>
</g>
<defs>
<clipPath id="clip0_10_134">
<rect width="65" height="65" fill="white"/>
</clipPath>
</defs>
</svg>
