<svg width="65" height="65" viewBox="0 0 65 65" fill="none" xmlns="http://www.w3.org/2000/svg">
<g clip-path="url(#clip0_10_313)">
<path d="M49.7656 0H15.2344C6.82066 0 0 6.82066 0 15.2344V49.7656C0 58.1793 6.82066 65 15.2344 65H49.7656C58.1793 65 65 58.1793 65 49.7656V15.2344C65 6.82066 58.1793 0 49.7656 0Z" fill="#242938"/>
<path d="M21.5173 28.4276C21.5173 29.0456 21.5841 29.5466 21.7009 29.9142C21.8491 30.3278 22.0279 30.7298 22.2356 31.117C22.3191 31.2505 22.3524 31.3841 22.3524 31.5011C22.3524 31.6682 22.2521 31.8353 22.035 32.0021L20.9826 32.7039C20.8323 32.8039 20.6819 32.8542 20.5484 32.8542C20.3813 32.8542 20.2142 32.7707 20.0472 32.6204C19.8222 32.3784 19.6208 32.1155 19.4459 31.8353C19.2592 31.5143 19.0864 31.1854 18.928 30.8496C17.6251 32.3866 15.9881 33.155 14.0169 33.1548C12.6138 33.1548 11.4946 32.7539 10.676 31.9521C9.85766 31.1502 9.43999 30.0813 9.43999 28.745C9.43999 27.3249 9.9412 26.1724 10.9601 25.3038C11.979 24.4352 13.3321 24.0007 15.0526 24.0007C15.6206 24.0007 16.2053 24.051 16.8233 24.1346C17.4413 24.2181 18.0761 24.3516 18.7444 24.502V23.2824C18.7444 22.0129 18.477 21.1275 17.9593 20.6098C17.4246 20.0919 16.5227 19.8415 15.2364 19.8415C14.6517 19.8415 14.0504 19.9083 13.4324 20.0586C12.8144 20.2089 12.2129 20.3927 11.6282 20.6266C11.4382 20.7115 11.243 20.784 11.0437 20.8437C10.9269 20.8772 10.8431 20.8939 10.7763 20.8939C10.5427 20.8939 10.4254 20.7269 10.4254 20.376V19.5574C10.4254 19.2903 10.4589 19.0897 10.5424 18.9729C10.626 18.8561 10.7763 18.739 11.0101 18.622C11.5948 18.3214 12.2964 18.0708 13.115 17.8704C13.9334 17.6531 14.802 17.553 15.7209 17.553C17.7087 17.553 19.1618 18.004 20.0974 18.9059C21.0161 19.808 21.4838 21.1778 21.4838 23.0153V28.4276H21.5173ZM14.7355 30.9667C15.2864 30.9667 15.8544 30.8664 16.4559 30.6658C17.0572 30.4654 17.5916 30.0978 18.0428 29.5968C18.3099 29.2795 18.5105 28.9286 18.6106 28.5276C18.7106 28.1267 18.7776 27.6423 18.7776 27.0745V26.3727C18.2711 26.2495 17.7581 26.1547 17.241 26.0889C16.7201 26.023 16.1956 25.9895 15.6706 25.9886C14.5514 25.9886 13.733 26.2059 13.1818 26.6569C12.6306 27.1078 12.3632 27.7426 12.3632 28.5779C12.3632 29.363 12.5638 29.9475 12.9812 30.3484C13.3824 30.7661 13.9671 30.9667 14.7355 30.9667ZM28.1486 32.7707C27.8479 32.7707 27.6474 32.7204 27.5138 32.6036C27.3802 32.5033 27.2632 32.2695 27.1632 31.9521L23.2378 19.0397C23.1372 18.7055 23.0872 18.4884 23.0872 18.3714C23.0872 18.1043 23.2207 17.9537 23.4881 17.9537H25.125C25.4424 17.9537 25.6598 18.004 25.7766 18.1208C25.9101 18.2211 26.0104 18.4549 26.1107 18.7723L28.9169 29.8307L31.523 18.7723C31.6065 18.4382 31.7065 18.2213 31.8404 18.1208C31.9739 18.0207 32.2078 17.954 32.5084 17.954H33.8447C34.1621 17.954 34.3794 18.004 34.513 18.1208C34.6465 18.2211 34.7636 18.4549 34.8304 18.7723L37.4697 29.9642L40.3594 18.7723C40.4597 18.4382 40.5768 18.2213 40.6936 18.1208C40.8271 18.0207 41.0445 17.954 41.3451 17.954H42.8985C43.1658 17.954 43.3162 18.0875 43.3162 18.3714C43.3162 18.4552 43.2994 18.5385 43.2826 18.6387C43.2661 18.739 43.2326 18.8723 43.1658 19.0564L39.1402 31.9688C39.0398 32.303 38.9228 32.5201 38.7893 32.6204C38.6557 32.7204 38.4384 32.7874 38.1545 32.7874H36.7179C36.4005 32.7874 36.1834 32.7371 36.0499 32.6204C35.9161 32.5033 35.7993 32.2862 35.7325 31.9521L33.1432 21.1778L30.5708 31.9353C30.4873 32.2695 30.387 32.4865 30.2534 32.6036C30.1196 32.7204 29.8858 32.7707 29.5852 32.7707H28.1486ZM49.6138 33.2216C48.7452 33.2216 47.8766 33.1213 47.0412 32.921C46.2061 32.7204 45.5546 32.5033 45.1202 32.2527C44.8531 32.1024 44.6692 31.9353 44.6024 31.785C44.5375 31.6376 44.5033 31.4784 44.5022 31.3173V30.4654C44.5022 30.1146 44.6357 29.9475 44.8863 29.9475C44.9867 29.9475 45.0869 29.9642 45.1869 29.9978C45.2872 30.031 45.4375 30.0978 45.6046 30.1648C46.1947 30.4243 46.8106 30.6202 47.4421 30.7493C48.0964 30.8822 48.7623 30.9494 49.43 30.9499C50.4824 30.9499 51.3008 30.7661 51.8687 30.3987C52.4367 30.031 52.7374 29.4965 52.7374 28.8118C52.7374 28.3441 52.587 27.9596 52.2864 27.6423C51.9858 27.3249 51.4178 27.041 50.5992 26.7737L48.1772 26.0221C46.9577 25.6379 46.0556 25.0699 45.5043 24.3184C44.9531 23.5833 44.6692 22.7645 44.6692 21.8961C44.6692 21.1947 44.8195 20.5766 45.1202 20.0418C45.4208 19.5074 45.8217 19.0397 46.3229 18.6723C46.8241 18.2879 47.3921 18.004 48.0601 17.8034C48.7284 17.6028 49.43 17.5195 50.165 17.5195C50.5324 17.5195 50.9166 17.5363 51.2842 17.5863C51.6684 17.6363 52.0191 17.7031 52.3699 17.7701C52.7041 17.8537 53.0215 17.9372 53.3221 18.0375C53.6227 18.1375 53.8566 18.2377 54.0236 18.3381C54.2575 18.4717 54.4246 18.6052 54.5249 18.7555C54.6251 18.8893 54.6752 19.0731 54.6752 19.307V20.0921C54.6752 20.4428 54.5416 20.6266 54.291 20.6266C54.1572 20.6266 53.9401 20.5598 53.6562 20.426C52.7041 19.9918 51.635 19.7747 50.4489 19.7747C49.4967 19.7747 48.7452 19.925 48.2272 20.2424C47.7092 20.5598 47.4421 21.0443 47.4421 21.729C47.4421 22.1967 47.6092 22.5977 47.9433 22.915C48.2775 23.2324 48.8955 23.5498 49.7809 23.8337L52.1529 24.5852C53.3554 24.9696 54.2242 25.5041 54.7419 26.1892C55.2597 26.8742 55.5103 27.659 55.5103 28.5276C55.5103 29.2459 55.3599 29.8975 55.0761 30.4654C54.7755 31.0334 54.3745 31.5344 53.8566 31.9353C53.3389 32.353 52.7206 32.6536 52.0025 32.871C51.2507 33.1048 50.4656 33.2216 49.6138 33.2216Z" fill="white"/>
<path fill-rule="evenodd" clip-rule="evenodd" d="M52.7711 41.3399C47.2753 45.3991 39.2907 47.554 32.4251 47.554C22.8036 47.554 14.1337 43.9958 7.5857 38.0826C7.06774 37.6149 7.53568 36.9801 8.15369 37.3475C15.2364 41.4567 23.9728 43.9458 33.0098 43.9458C39.1069 43.9458 45.8055 42.6762 51.9693 40.0704C52.8879 39.6527 53.673 40.6716 52.7711 41.3399Z" fill="#FF9900"/>
<path fill-rule="evenodd" clip-rule="evenodd" d="M55.0596 38.7342C54.358 37.832 50.4159 38.2997 48.6284 38.5168C48.0939 38.5839 48.0104 38.1159 48.4948 37.7653C51.6351 35.5603 56.7968 36.1951 57.3983 36.9299C57.9995 37.6817 57.2312 42.8434 54.2912 45.3157C53.84 45.6998 53.4059 45.4993 53.6062 44.9983C54.2745 43.3446 55.7611 39.6193 55.0596 38.7342Z" fill="#FF9900"/>
</g>
<defs>
<clipPath id="clip0_10_313">
<rect width="65" height="65" fill="white"/>
</clipPath>
</defs>
</svg>
