<svg width="65" height="65" viewBox="0 0 65 65" fill="none" xmlns="http://www.w3.org/2000/svg">
<g clip-path="url(#clip0_10_325)">
<path d="M49.7656 0H15.2344C6.82066 0 0 6.82066 0 15.2344V49.7656C0 58.1793 6.82066 65 15.2344 65H49.7656C58.1793 65 65 58.1793 65 49.7656V15.2344C65 6.82066 58.1793 0 49.7656 0Z" fill="#2396ED"/>
<path d="M35.8483 31.0078H41.1084V26.2486H35.8483V31.0078ZM29.5864 31.0078H34.8463V26.2486H29.5864V31.0078ZM23.4495 31.0078H28.7097V26.2486H23.4495V31.0078ZM17.3126 31.0078H22.4478V26.2486H17.3128L17.3126 31.0078ZM11.0508 31.0078H16.3109V26.2486H11.0508V31.0078ZM17.3128 25.2467H22.4476V20.4877H17.3128V25.2467ZM23.4498 25.2467H28.7097V20.4877H23.4495L23.4498 25.2467ZM29.5864 25.2467H34.8463V20.4877H29.5864V25.2467ZM29.5864 19.4855H34.8463V14.7266H29.5864V19.4855ZM57.8906 28.879C57.8906 28.879 55.6362 26.7498 51.0024 27.5013C50.5014 23.8692 46.619 21.7402 46.619 21.7402C46.619 21.7402 42.9871 26.1237 45.617 31.008C44.8657 31.3838 43.6132 31.8848 41.7346 31.8848H7.29371C6.66732 34.2644 6.66732 50.0444 23.9505 50.0444C36.3492 50.0444 45.617 44.2835 50.0005 33.7632C56.5129 34.2641 57.8906 28.879 57.8906 28.879Z" fill="white"/>
</g>
<defs>
<clipPath id="clip0_10_325">
<rect width="65" height="65" fill="white"/>
</clipPath>
</defs>
</svg>
