<svg width="65" height="65" viewBox="0 0 65 65" fill="none" xmlns="http://www.w3.org/2000/svg">
<g clip-path="url(#clip0_10_332)">
<path d="M49.7656 0H15.2344C6.82066 0 0 6.82066 0 15.2344V49.7656C0 58.1793 6.82066 65 15.2344 65H49.7656C58.1793 65 65 58.1793 65 49.7656V15.2344C65 6.82066 58.1793 0 49.7656 0Z" fill="#242938"/>
<path d="M19.3134 10.918C23.9502 10.918 27.7088 14.6765 27.7088 19.3134C27.7088 23.9502 23.9502 27.7088 19.3134 27.7088C14.6765 27.7088 10.918 23.9502 10.918 19.3134C10.918 14.6765 14.6765 10.918 19.3134 10.918ZM31.4402 27.7088C34.5312 27.7088 37.0373 30.2148 37.0373 33.3059C37.0373 36.397 34.5312 38.9028 31.4402 38.9028C28.3491 38.9028 25.8433 36.397 25.8433 33.3059C25.8433 30.2148 28.3491 27.7088 31.4402 27.7088ZM31.4402 42.6342C34.5312 42.6342 37.0373 45.14 37.0373 48.2313C37.0373 51.3223 34.5312 53.8281 31.4402 53.8281C28.3491 53.8281 25.8433 51.3223 25.8433 48.2313C25.8433 45.14 28.3491 42.6342 31.4402 42.6342Z" stroke="#2088FF" stroke-width="1.8657" stroke-linecap="round" stroke-linejoin="round"/>
<path d="M48.2313 42.634C51.3223 42.634 53.8281 45.1398 53.8281 48.2311C53.8281 51.3222 51.3223 53.828 48.2313 53.828C45.14 53.828 42.6342 51.3222 42.6342 48.2311C42.6342 45.1398 45.14 42.634 48.2313 42.634Z" stroke="#79B8FF" stroke-width="1.8657" stroke-linecap="round" stroke-linejoin="round"/>
<path d="M33.3399 32.0063L30.4768 34.8656L29.0862 33.4798" stroke="#2088FF" stroke-width="1.8657" stroke-linecap="round" stroke-linejoin="round"/>
<path d="M48.2313 27.7087C51.3223 27.7087 53.8281 30.2148 53.8281 33.3058C53.8281 36.3969 51.3223 38.9027 48.2313 38.9027C45.14 38.9027 42.6342 36.3969 42.6342 33.3058C42.6342 30.2148 45.14 27.7087 48.2313 27.7087Z" stroke="#2088FF" stroke-width="1.8657" stroke-linecap="round" stroke-linejoin="round"/>
<path d="M50.1308 32.0063L47.2677 34.8656L45.8773 33.4798M18.3805 27.7087V41.7012C18.3805 45.3075 21.3444 48.2309 24.9105 48.2309H25.8433M16.5148 16.3396C16.5148 15.6055 17.3238 15.1589 17.9451 15.5504L22.7145 18.5549C23.2977 18.9223 23.2946 19.7736 22.7089 20.137L17.9392 23.0945C17.3179 23.4799 16.5148 23.033 16.5148 22.3018V16.3396Z" stroke="#2088FF" stroke-width="1.8657" stroke-linecap="round" stroke-linejoin="round"/>
<path d="M25.7956 34.2384C26.043 34.2384 26.2802 34.1401 26.4552 33.9652C26.6301 33.7903 26.7283 33.5531 26.7283 33.3057C26.7283 33.0583 26.6301 32.8211 26.4552 32.6461C26.2802 32.4712 26.043 32.373 25.7956 32.373V34.2384ZM17.4477 27.7415C17.4477 31.3297 20.3567 34.2384 23.9446 34.2384V32.373C21.3868 32.373 19.3134 30.2993 19.3134 27.7415H17.4477ZM23.9446 34.2384H25.7956V32.373H23.9446V34.2384Z" fill="#2088FF"/>
<path d="M37.0884 33.3059H42.6337" stroke="#2088FF" stroke-width="1.8657" stroke-linecap="round" stroke-linejoin="round"/>
<path fill-rule="evenodd" clip-rule="evenodd" d="M29.5745 47.2983C29.8219 47.2983 30.0591 47.3966 30.2341 47.5716C30.409 47.7465 30.5073 47.9838 30.5073 48.2312C30.5073 48.4786 30.409 48.7159 30.2341 48.8908C30.0591 49.0658 29.8219 49.164 29.5745 49.164C29.327 49.164 29.0898 49.0658 28.9148 48.8908C28.7399 48.7159 28.6416 48.4786 28.6416 48.2312C28.6416 47.9838 28.7399 47.7465 28.9148 47.5716C29.0898 47.3966 29.327 47.2983 29.5745 47.2983ZM33.3059 47.2983C33.4904 47.2983 33.6709 47.353 33.8244 47.4555C33.9778 47.558 34.0975 47.7037 34.1681 47.8742C34.2388 48.0448 34.2573 48.2324 34.2213 48.4134C34.1853 48.5945 34.0964 48.7607 33.9659 48.8912C33.8354 49.0218 33.6691 49.1106 33.4881 49.1466C33.3071 49.1826 33.1194 49.1641 32.9489 49.0935C32.7784 49.0228 32.6327 48.9032 32.5302 48.7497C32.4276 48.5962 32.373 48.4158 32.373 48.2312C32.3731 47.9838 32.4715 47.7466 32.6464 47.5717C32.8213 47.3968 33.0585 47.2985 33.3059 47.2983Z" fill="#79B8FF"/>
<path d="M41.7059 48.2373L40.7614 48.2683" stroke="#79B8FF" stroke-width="1.8657" stroke-linecap="round"/>
</g>
<defs>
<clipPath id="clip0_10_332">
<rect width="65" height="65" fill="white"/>
</clipPath>
</defs>
</svg>
