<svg width="65" height="65" viewBox="0 0 65 65" fill="none" xmlns="http://www.w3.org/2000/svg">
<path d="M49.7656 0H15.2344C6.82066 0 0 6.82066 0 15.2344V49.7656C0 58.1793 6.82066 65 15.2344 65H49.7656C58.1793 65 65 58.1793 65 49.7656V15.2344C65 6.82066 58.1793 0 49.7656 0Z" fill="#242938"/>
<path d="M21.8233 50.7624L28.0516 54.2206H37.4705L46.2815 47.6051L50.2313 37.2308L41.1163 26.2552L38.5338 20.0908L25.9249 20.5418L26.0767 24L23.646 28.5104L19.8481 35.8777L19.0887 42.042L21.8233 50.7624Z" fill="#ECEFF1"/>
<path d="M47.4967 29.1119C45.0661 25.6537 43.0912 23.5488 42.0278 19.1887C40.9645 14.8287 42.3317 16.0314 41.4202 12.2723C40.9645 10.318 40.2048 8.9647 39.4453 7.91226C38.5338 6.85982 37.4705 6.25831 36.8626 6.108C35.4956 5.35644 32.3052 4.15343 28.3555 6.25831C24.2536 8.36319 24.7094 12.8738 25.4691 22.0454C25.4691 22.6467 25.317 23.3988 25.0133 24C24.4057 25.3533 23.3421 26.5558 22.4308 27.6085C21.3672 29.1119 20.3039 30.6155 19.5444 32.2692C17.7214 35.7274 16.0502 40.0875 16.5059 41.7415C17.2656 41.5911 26.8364 56.025 26.8364 56.3256C27.444 56.1753 30.0264 56.1753 32.3052 56.1753C35.4956 56.025 37.3184 55.8746 39.9011 56.4759C39.9011 56.025 39.749 55.5738 39.749 55.1228C39.749 54.2207 39.9011 53.4689 40.0529 52.4164C40.2048 51.6646 40.3569 50.9131 40.5087 50.0109C38.9896 51.364 36.255 52.8676 33.6725 53.3186C31.3937 53.7695 27.5958 53.0179 25.7727 50.7625C25.9248 50.7625 26.2285 50.7625 26.3806 50.6122C26.8364 50.4619 27.2921 50.3116 27.444 50.0109C27.8997 49.2591 27.5958 48.5073 27.2921 48.0564C26.9882 47.6052 24.7094 45.9512 23.646 45.0493C22.5827 44.1472 21.9751 43.696 21.3672 43.0948L20.152 41.8918C19.8481 41.5911 19.6963 41.2905 19.5444 41.14C19.2405 40.3884 19.0887 39.4863 19.2405 38.2835C19.3923 36.6296 19.9999 35.2762 20.7596 33.7729C21.0635 33.1714 21.823 31.9686 21.823 31.9686C21.823 31.9686 19.2405 38.2835 20.6078 40.2381C20.6078 40.2381 20.7596 38.2835 21.3672 36.3289C21.823 34.9756 22.5827 33.021 23.4942 31.9686C24.4057 30.9162 26.6843 27.007 26.8364 24.6013C26.8364 23.5488 26.9882 22.4964 26.9882 21.7448C26.3806 21.1431 37.0147 19.6399 37.6223 21.2936C37.7741 21.8951 39.9011 27.3076 41.1163 30.1643C41.7239 31.5177 42.4836 32.7204 42.9393 34.2238C43.3951 35.8777 43.6988 38.1329 43.6988 40.3884C43.6988 40.8393 43.6988 41.5911 43.5469 42.343C43.8509 42.343 49.7755 36.0281 42.7875 30.7659C42.7875 30.7659 47.0409 32.7204 47.193 36.6296C47.3449 39.7869 45.9776 42.343 45.6739 42.7939C45.8258 42.7939 48.864 44.1472 49.0158 44.1472C49.6237 44.1472 50.8389 43.696 50.8389 43.696C50.991 43.2451 51.4465 42.0421 51.4465 41.5911C52.5101 38.1329 49.9274 32.5701 47.4967 29.1119Z" fill="#263238"/>
<path d="M28.2034 19.1888C29.2942 19.1888 30.1783 17.8423 30.1783 16.1817C30.1783 14.5209 29.2942 13.1747 28.2034 13.1747C27.1126 13.1747 26.2285 14.5209 26.2285 16.1815C26.2285 17.842 27.1129 19.1888 28.2034 19.1888ZM35.0396 19.4894C36.466 19.4894 37.6223 17.9411 37.6223 16.0312C37.6223 14.1213 36.466 12.5735 35.0396 12.5735C33.6134 12.5735 32.4571 14.1218 32.4571 16.0317C32.4571 17.9416 33.6134 19.4899 35.0396 19.4899" fill="#ECEFF1"/>
<path d="M29.3069 16.3873C29.1807 15.3988 28.6058 14.6564 28.0231 14.7293C27.4404 14.8021 27.0705 15.6626 27.1969 16.6513C27.3231 17.6398 27.8977 18.3822 28.4804 18.3093C29.0631 18.2362 29.4331 17.3757 29.3069 16.3873ZM34.8877 18.5871C35.7269 18.5871 36.4068 17.7122 36.4068 16.6326C36.4068 15.5532 35.7269 14.678 34.8877 14.678C34.0486 14.678 33.3686 15.5532 33.3686 16.6326C33.3686 17.7119 34.0488 18.5871 34.8877 18.5871Z" fill="#212121"/>
<path d="M55.0926 49.71C54.485 49.4094 53.4214 48.9582 52.5098 47.6051C52.0543 46.8533 52.2062 44.7484 51.4465 43.8463C50.9907 43.245 50.3831 43.5457 50.2313 43.5457C48.864 43.8463 45.6737 45.9512 43.5469 43.5457C43.243 43.2451 42.7872 42.7939 42.0278 42.7939C41.2681 42.7939 40.9645 43.0945 40.6605 43.696C40.3566 44.2975 40.3566 44.7484 40.3566 46.2521C40.3566 47.4548 40.3566 48.8079 40.2048 49.8603C39.9008 52.4164 39.4453 53.92 39.4453 55.4234C39.4453 57.0774 39.9008 58.1298 40.5087 58.5807C40.9645 59.0319 41.7239 59.3326 43.3951 59.3326C45.0661 59.3326 46.1294 58.7313 47.193 57.6786C47.9525 56.927 48.5601 56.6262 50.687 55.1228C52.358 54.0703 54.9407 52.717 55.3962 52.2661C55.7002 51.9655 56.1559 51.8149 56.1559 50.9128C56.1559 50.1612 55.5483 49.8603 55.0926 49.71ZM24.5575 50.1612C23.0384 47.7554 22.8863 47.3045 21.823 45.8009C20.9114 44.2975 18.9366 41.4408 17.7214 41.4408C16.8098 41.4408 16.3541 41.8917 15.7465 42.4932C15.1386 43.0945 14.531 44.4478 13.4677 45.1996C12.5562 45.9512 9.97367 45.8009 9.36608 46.703C8.75848 47.6051 9.97367 48.9584 9.97367 51.2136C9.97367 52.1158 9.21399 52.717 9.06215 53.3185C8.91032 54.0703 8.75823 54.5213 9.06215 55.1228C9.66975 56.0249 10.4294 56.3255 15.5944 57.378C18.329 57.9795 20.9114 59.4829 22.5827 59.6334C24.2536 59.7837 27.14 59.6334 27.14 55.5737C27.2921 53.1682 25.9248 52.5667 24.5575 50.1612ZM27.4439 22.9475C26.5324 22.346 25.7727 21.7445 25.7727 20.8426C25.7727 19.9405 26.3806 19.6396 27.2921 18.8881C27.4439 18.7375 29.1149 17.2341 30.7861 17.2341C32.4573 17.2341 34.432 18.2866 35.1916 18.5875C36.5589 18.8878 37.926 19.1887 37.7741 20.2411C37.6223 21.7445 37.4704 22.0454 35.9511 22.7972C34.8877 23.0978 32.9128 24.7518 31.5455 24.7518C30.938 24.7518 30.0264 24.7518 29.4188 24.6012C28.9631 24.4509 28.2034 23.6991 27.4439 22.9475Z" fill="#FFC107"/>
<path d="M27.14 21.7446C27.444 22.0454 27.8997 22.3463 28.3555 22.4964C28.6592 22.6467 29.1149 22.7973 29.1149 22.7973H30.4822C31.2419 22.7973 32.3053 22.4964 33.3686 21.8951C34.432 21.4439 34.5841 21.1433 35.3435 20.8427C36.1032 20.3915 36.8626 19.9406 36.5589 19.7903C36.255 19.6397 35.9511 19.7903 34.8877 20.3915C33.9762 20.993 33.2168 21.2936 32.3053 21.7448C31.8495 21.8951 31.2419 22.1958 30.7861 22.1958H29.4189C28.9631 22.1958 28.6592 22.0454 28.2034 21.8951C27.8997 21.7446 27.7476 21.5943 27.5958 21.5943C27.2921 21.4439 26.6843 20.8427 26.3806 20.6921C26.3806 20.6921 26.0767 20.6921 26.2285 20.8427L27.14 21.7446ZM31.6977 18.4369C31.8495 18.7376 32.1534 18.7376 32.3053 18.8879C32.4571 19.0382 32.6089 19.0384 32.6089 19.0384C32.761 18.8879 32.6089 18.5872 32.4571 18.5872C32.4571 18.2866 31.6977 18.2866 31.6977 18.4369ZM29.267 18.7376C29.267 18.8881 29.5707 19.0384 29.5707 18.8881C29.7228 18.7376 29.8746 18.5872 30.0265 18.5872C30.3304 18.4369 30.1783 18.2866 29.7228 18.2866C29.4189 18.4369 29.4189 18.5872 29.267 18.7376Z" fill="#634703"/>
<path d="M44.0027 45.3499V45.8008C44.3067 46.4023 45.0661 46.5526 45.6737 46.5526C46.5852 46.5526 47.4967 45.9511 47.9525 45.3499C47.9525 45.1996 48.1043 45.049 48.2564 44.8987C48.5601 44.4478 48.7122 44.1471 48.864 43.9966C48.864 43.9966 48.7122 43.8463 48.7122 43.6959C48.5601 43.3953 48.1043 43.0944 47.4967 42.9441C47.041 42.7938 46.2815 42.6435 45.9776 42.6435C44.6103 42.4932 43.8509 42.9441 43.3951 43.3953C43.3951 43.3953 43.547 43.3953 43.547 43.5456C43.8509 43.8463 44.0027 44.1471 44.0027 44.5981C44.1546 44.8987 44.0027 45.049 44.0027 45.3499Z" fill="#455A64"/>
</svg>
