<svg width="65" height="65" viewBox="0 0 65 65" fill="none" xmlns="http://www.w3.org/2000/svg">
<g clip-path="url(#clip0_10_329)">
<path d="M0.521523 48.7359C0.85668 49.2602 1.34088 49.6535 1.93705 49.9483L30.6188 64.4978C31.8109 65.1204 33.2635 65.1204 34.4183 64.4978L63.1003 49.9483C64.2924 49.3587 65 48.2443 65 47.0318V17.9328C65 16.7204 64.2924 15.6062 63.1003 15.0165L34.4183 0.466818C33.2264 -0.155931 31.7736 -0.155931 30.6188 0.466818L1.9373 15.0165C0.707637 15.6062 0 16.7204 0 17.9328V47.0644C0 47.6546 0.149043 48.2117 0.521523 48.7359Z" fill="#009639"/>
<path d="M23.318 43.591C23.32 44.0175 23.2261 44.4402 23.0415 44.8346C22.8569 45.229 22.5853 45.5874 22.2425 45.889C21.8996 46.1906 21.4923 46.4295 21.0439 46.5919C20.5956 46.7543 20.1151 46.837 19.6303 46.8352C19.1454 46.837 18.665 46.7542 18.2167 46.5918C17.7684 46.4294 17.3611 46.1905 17.0182 45.8889C16.6754 45.5873 16.4039 45.229 16.2193 44.8346C16.0347 44.4402 15.9407 44.0175 15.9428 43.591V21.3409C15.9428 19.604 17.6935 18.195 20.1145 18.195C21.8654 18.195 23.9142 18.8175 25.1433 20.1611L26.2605 21.3409L41.682 37.5614V21.4063C41.68 20.9798 41.774 20.5571 41.9586 20.1627C42.1432 19.7683 42.4147 19.4099 42.7576 19.1083C43.1004 18.8067 43.5078 18.5678 43.9561 18.4054C44.4044 18.243 44.8849 18.1603 45.3698 18.1621C45.8546 18.1604 46.335 18.2431 46.7833 18.4055C47.2316 18.5679 47.639 18.8068 47.9818 19.1084C48.3246 19.41 48.5961 19.7684 48.7807 20.1628C48.9653 20.5572 49.0593 20.9798 49.0572 21.4063V43.6567C49.0572 45.3933 47.3066 46.8023 44.8856 46.8023C43.1346 46.8023 41.0858 46.1798 39.8567 44.8363L23.318 27.4685V43.591Z" fill="white"/>
</g>
<defs>
<clipPath id="clip0_10_329">
<rect width="65" height="65" fill="white"/>
</clipPath>
</defs>
</svg>
