<svg width="65" height="65" viewBox="0 0 65 65" fill="none" xmlns="http://www.w3.org/2000/svg">
<g clip-path="url(#clip0_10_319)">
<path d="M49.7656 0H15.2344C6.82066 0 0 6.82066 0 15.2344V49.7656C0 58.1793 6.82066 65 15.2344 65H49.7656C58.1793 65 65 58.1793 65 49.7656V15.2344C65 6.82066 58.1793 0 49.7656 0Z" fill="#242938"/>
<path fill-rule="evenodd" clip-rule="evenodd" d="M38.9739 57.8907V41.8644L25.9157 33.8481V49.8741L38.9739 57.8907ZM38.9739 40.1129L25.9157 32.0966V16.064L38.9739 24.0803V40.1129Z" fill="#5C4EE5"/>
<path fill-rule="evenodd" clip-rule="evenodd" d="M53.476 32.09V16.0574L40.4117 24.0737V40.1064L53.476 32.09Z" fill="#4040B2"/>
<path fill-rule="evenodd" clip-rule="evenodd" d="M24.4842 31.1586V15.1257L11.4258 7.10938V23.142L24.4842 31.1586Z" fill="#5C4EE5"/>
</g>
<defs>
<clipPath id="clip0_10_319">
<rect width="65" height="65" fill="white"/>
</clipPath>
</defs>
</svg>
