<svg width="35" height="35" viewBox="0 0 35 35" fill="none" xmlns="http://www.w3.org/2000/svg">
<path opacity="0.5" d="M12.9121 31.9126C15.8884 32.9091 19.1083 32.9097 22.085 31.914C21.9765 31.9489 21.8612 31.9576 21.7487 31.9392C21.6362 31.9208 21.5297 31.8759 21.438 31.8082C21.3462 31.7406 21.2719 31.6521 21.2211 31.55C21.1703 31.448 21.1445 31.3353 21.1458 31.2213C21.1458 30.7284 21.1648 29.1607 21.1648 27.2109C21.2039 26.7169 21.1362 26.2203 20.9663 25.7548C20.7965 25.2892 20.5284 24.8657 20.1804 24.513C23.4252 24.1484 26.8333 22.9088 26.8333 17.3117C26.8569 15.862 26.3216 14.4589 25.3385 13.3932C25.7843 12.1335 25.7321 10.7511 25.1927 9.52861C25.1927 9.52861 23.9706 9.12757 21.1823 11.0234C18.796 10.3671 16.2768 10.3671 13.8906 11.0234C11.1008 9.14507 9.88018 9.52715 9.88018 9.52715C9.34057 10.7496 9.2884 12.1321 9.73435 13.3917C8.75408 14.4592 8.21927 15.8612 8.23955 17.3103C8.23955 22.8884 11.6302 24.1469 14.875 24.5115C14.3389 25.0273 14.0083 25.7202 13.9446 26.4613C13.5874 26.6616 13.1943 26.7896 12.7877 26.8378C12.3811 26.8861 11.969 26.8538 11.5749 26.7428C11.1808 26.6317 10.8124 26.4441 10.4908 26.1906C10.1693 25.9371 9.90082 25.6228 9.7008 25.2655L9.69789 25.2582C9.47175 24.8471 9.1498 24.4965 8.75935 24.2363C8.3689 23.9761 7.92146 23.8139 7.45497 23.7634C6.23435 23.7824 6.96351 24.4561 7.47393 24.7303C8.13164 25.2844 8.64497 25.9917 8.96872 26.7894C9.26039 27.6105 10.2083 29.1782 13.8716 28.503C13.8716 29.7251 13.8906 30.8728 13.8906 31.2199C13.8906 31.5976 13.6193 32.0234 12.9121 31.9126Z" fill="#545454"/>
<path d="M17.5 3.0376C9.44565 3.0376 2.91669 9.56656 2.91669 17.6209C2.91669 24.0711 7.10939 29.5341 12.9136 31.4576C13.6209 31.567 13.8906 31.1426 13.8906 30.7649C13.8906 30.4178 13.8731 29.2701 13.8731 28.048C10.2084 28.7232 9.26044 27.1555 8.96877 26.3345C8.64497 25.537 8.13194 24.8302 7.47398 24.2753C6.96356 24.0011 6.2344 23.3274 7.45502 23.3084C7.92155 23.3588 8.36904 23.521 8.75951 23.7812C9.14997 24.0414 9.47189 24.392 9.69794 24.8032L9.70231 24.812C9.90233 25.1693 10.1708 25.4836 10.4924 25.7371C10.8139 25.9906 11.1823 26.1782 11.5764 26.2893C11.9705 26.4003 12.3826 26.4326 12.7892 26.3843C13.1958 26.336 13.5889 26.2081 13.9461 26.0078C14.0088 25.2641 14.3398 24.5728 14.875 24.0566C11.6302 23.692 8.2396 22.4334 8.2396 16.8553C8.21932 15.4062 8.75413 14.0042 9.7344 12.9368C9.2886 11.6771 9.34076 10.2947 9.88023 9.07218C9.88023 9.07218 11.1009 8.68864 13.8906 10.567C16.2769 9.91065 18.7961 9.91065 21.1823 10.567C23.9706 8.67114 25.1927 9.07218 25.1927 9.07218C25.7323 10.2943 25.7848 11.6768 25.3386 12.9368C26.3217 14.0024 26.8569 15.4056 26.8334 16.8553C26.8334 22.4524 23.4238 23.692 20.1804 24.0566C20.8834 24.7711 21.2436 25.7541 21.1648 26.7545C21.1648 28.7043 21.1459 30.272 21.1459 30.7649C21.1444 30.8788 21.17 30.9915 21.2206 31.0936C21.2712 31.1957 21.3454 31.2843 21.437 31.3521C21.5286 31.4199 21.6349 31.4649 21.7474 31.4835C21.8598 31.5021 21.975 31.4937 22.0836 31.4591C27.8892 29.5355 32.0834 24.0726 32.0834 17.6209C32.0834 9.56656 25.5544 3.0376 17.5 3.0376Z" fill="#545454"/>
</svg>
