<svg width="50" height="50" viewBox="0 0 50 50" fill="none" xmlns="http://www.w3.org/2000/svg">
<path opacity="0.2" d="M43.75 15.625L25 26.5625L6.25 15.625L25 4.6875L43.75 15.625Z" fill="#F8F8F8"/>
<path d="M45.0996 33.5938C45.306 33.9519 45.362 34.3772 45.2555 34.7766C45.149 35.176 44.8886 35.5169 44.5312 35.7246L25.7812 46.6621C25.5423 46.8015 25.2707 46.8749 24.9941 46.8749C24.7176 46.8749 24.4459 46.8015 24.207 46.6621L5.45703 35.7246C5.10487 35.513 4.85023 35.1712 4.74824 34.7732C4.64625 34.3752 4.70513 33.9531 4.91211 33.5982C5.1191 33.2433 5.45754 32.9842 5.85416 32.877C6.25078 32.7698 6.67366 32.8231 7.03125 33.0254L25 43.5039L42.9688 33.0254C43.3269 32.819 43.7522 32.763 44.1516 32.8695C44.5509 32.976 44.8918 33.2365 45.0996 33.5938ZM42.9688 23.6504L25 34.1289L7.03125 23.6504C6.67548 23.4733 6.26557 23.4384 5.88497 23.5528C5.50437 23.6672 5.18167 23.9224 4.98256 24.2663C4.78346 24.6103 4.7229 25.0172 4.81322 25.4042C4.90355 25.7913 5.13796 26.1293 5.46875 26.3496L24.2188 37.2871C24.4577 37.4265 24.7293 37.4999 25.0059 37.4999C25.2824 37.4999 25.5541 37.4265 25.793 37.2871L44.543 26.3496C44.7231 26.2477 44.8811 26.1111 45.008 25.9476C45.1348 25.7842 45.2279 25.5971 45.2819 25.3974C45.3359 25.1976 45.3497 24.9892 45.3225 24.784C45.2952 24.5789 45.2275 24.3813 45.1233 24.2025C45.019 24.0238 44.8803 23.8675 44.7152 23.7428C44.5501 23.6181 44.3619 23.5275 44.1614 23.4761C43.961 23.4248 43.7523 23.4137 43.5476 23.4436C43.3429 23.4736 43.1461 23.5438 42.9688 23.6504ZM4.6875 15.625C4.68812 15.3514 4.76062 15.0826 4.89772 14.8458C5.03483 14.6089 5.23174 14.4123 5.46875 14.2754L24.2188 3.33792C24.4577 3.19859 24.7293 3.12518 25.0059 3.12518C25.2824 3.12518 25.5541 3.19859 25.793 3.33792L44.543 14.2754C44.7788 14.413 44.9745 14.61 45.1105 14.8468C45.2465 15.0836 45.3181 15.352 45.3181 15.625C45.3181 15.8981 45.2465 16.1664 45.1105 16.4032C44.9745 16.64 44.7788 16.837 44.543 16.9746L25.793 27.9121C25.5541 28.0515 25.2824 28.1249 25.0059 28.1249C24.7293 28.1249 24.4577 28.0515 24.2188 27.9121L5.46875 16.9746C5.23174 16.8378 5.03483 16.6411 4.89772 16.4043C4.76062 16.1674 4.68812 15.8987 4.6875 15.625ZM9.35156 15.625L25 24.7539L40.6484 15.625L25 6.49612L9.35156 15.625Z" fill="#F8F8F8"/>
</svg>
