<svg width="35" height="35" viewBox="0 0 35 35" fill="none" xmlns="http://www.w3.org/2000/svg">
<path d="M13.0521 19.5417H9.59583C9.24357 18.2033 9.24357 16.7967 9.59583 15.4583H13.0521C12.9637 16.1355 12.915 16.8172 12.9063 17.5C12.915 18.1828 12.9637 18.8645 13.0521 19.5417ZM10.4417 13.4167H13.4167C13.7562 12.1568 14.2356 10.9388 14.8458 9.78542C12.9855 10.4208 11.42 11.7116 10.4417 13.4167ZM24.5583 13.4167C23.5713 11.7132 22.0021 10.4236 20.1396 9.78542C20.7569 10.9338 21.232 12.1533 21.5542 13.4167M17.5 25.6229C18.3666 24.3915 19.0266 23.0271 19.4542 21.5833H15.5458C15.9734 23.0271 16.6334 24.3915 17.5 25.6229ZM17.5 9.3625C16.632 10.5983 15.9719 11.9678 15.5458 13.4167H19.4542C19.0281 11.9678 18.368 10.5983 17.5 9.3625ZM10.4417 21.5833C11.4251 23.2841 12.9888 24.5733 14.8458 25.2146C14.2356 24.0612 13.7562 22.8432 13.4167 21.5833M30.625 7.29167V27.7083C30.625 28.4819 30.3177 29.2237 29.7707 29.7707C29.2237 30.3177 28.4819 30.625 27.7083 30.625H7.29167C6.51812 30.625 5.77625 30.3177 5.22927 29.7707C4.68229 29.2237 4.375 28.4819 4.375 27.7083V7.29167C4.375 6.51812 4.68229 5.77625 5.22927 5.22927C5.77625 4.68229 6.51812 4.375 7.29167 4.375H27.7083C28.4819 4.375 29.2237 4.68229 29.7707 5.22927C30.3177 5.77625 30.625 6.51812 30.625 7.29167ZM27.7083 17.5C27.7083 15.481 27.1096 13.5073 25.9879 11.8286C24.8662 10.1498 23.2719 8.84137 21.4066 8.06873C19.5412 7.29609 17.4887 7.09393 15.5085 7.48782C13.5282 7.88171 11.7093 8.85396 10.2816 10.2816C8.85396 11.7093 7.88171 13.5282 7.48782 15.5085C7.09393 17.4887 7.29609 19.5412 8.06873 21.4066C8.84137 23.2719 10.1498 24.8662 11.8286 25.9879C13.5073 27.1096 15.481 27.7083 17.5 27.7083C20.2074 27.7083 22.8039 26.6328 24.7184 24.7184C26.6328 22.8039 27.7083 20.2074 27.7083 17.5ZM22.0938 17.5C22.085 18.1828 22.0363 18.8645 21.9479 19.5417H25.4042C25.7564 18.2033 25.7564 16.7967 25.4042 15.4583H21.9479C22.0363 16.1355 22.085 16.8172 22.0938 17.5ZM20.1396 25.2146C22.0008 24.574 23.5692 23.2851 24.5583 21.5833H21.5542C21.232 22.8467 20.7569 24.0662 20.1396 25.2146ZM15.1083 15.4583C14.8904 16.8107 14.8904 18.1893 15.1083 19.5417H19.8917C19.9929 18.8657 20.0465 18.1835 20.0521 17.5C20.0465 16.8165 19.9929 16.1343 19.8917 15.4583H15.1083Z" fill="#545454"/>
</svg>
